<svg xmlns="http://www.w3.org/2000/svg" width="80" height="15">
  <g id="brilliant">
    <rect width="80" height="15" fill="#666"/>
    <rect x="1" y="1" width="78" height="13" fill="#fff"/>
    <rect x="2" y="2" width="10" height="11" fill="#385caf"/>
    <rect x="13" y="2" width="20" height="11" fill="#418ade"/>
    <rect x="34" y="2" width="44" height="11" fill="#898e79"/>
    <path d="m7.7 3.01-1.49.143v6.15l1.48-.223V6.46l1.99 2.91 1.56-.493-2.04-2.8 2.05-2.64-1.59-.366-1.97 2.64zm-3.39 1.5a.076.076 0 0 0-.046.022l-.587.586a.076.076 0 0 0-.01.093l.686 1.13a2.955 2.955 0 0 0-.289.658l-1.26.262a.076.076 0 0 0-.06.074v.83c0 .034.024.065.058.073l1.22.299c.065.27.166.525.3.76l-.708 1.08c-.02.03-.016.07.01.095l.586.586c.024.025.063.03.093.012l1.11-.674c.218.126.453.225.702.292l.259 1.25c.007.035.038.06.074.06h.829a.076.076 0 0 0 .074-.058l.305-1.25a2.92 2.92 0 0 0 .722-.304l1.09.717c.03.02.07.016.095-.01l.587-.586a.076.076 0 0 0 .011-.093l-.399-.658-.129.041a.044.044 0 0 1-.05-.017l-.584-.854a2.38 2.38 0 1 1-3.1-3.25v-.613c-.15.052-.296.116-.434.19h-.001l-1.12-.734a.076.076 0 0 0-.05-.012z" fill="#fff"/>
    <path d="M15 5v5h1V8h1V7h-1V5h-1zm2 2h1V6h-1v1zm1-1h1V5h-1v1zm-1 2v1h1V8h-1zm1 1v1h1V9h-1zm3-4v5h3V9h-2V6h2V5h-3zm3 1v3h1V6h-1zm3-1v5h3V9h-2V8h2V7h-2V6h2V5h-3z" fill="#fff"/>
    <path d="M37 5v5h3V9h-2V6h2V5h-3zm3 1v3h1V6h-1zm3-1v5h3V9h-2V8h2V7h-2V6h2V5h-3zm6 0v1h3V5h-3zm0 1h-1v1h1V6zm0 1v1h2V7h-2zm2 1v1h1V8h-1zm0 1h-3v1h3V9zm3-4v5h1V8h1V7h-1V5h-1zm2 2h1V6h-1v1zm1-1h1V5h-1v1zm-1 2v1h1V8h-1zm1 1v1h1V9h-1zm3-4v1h1v4h1V6h1V5h-3zm6 0v1h2V5h-2zm2 1v3h1V6h-1zm0 3h-2v1h2V9zm-2 0V6h-1v3h1zm5-4v5h1V8h2V7h-2V6h2V5h-3zm3 1v1h1V6h-1z" fill="#fff"/>
  </g>
</svg>
