<svg xmlns="http://www.w3.org/2000/svg" width="256" height="192">
  <style id="current-color-scheme" type="text/css">
    .ColorScheme-Highlight{color:#1a73e8}
  </style>
  <g id="hint-rotation-angle" fill="#00f" transform="translate(0 172)">
    <rect width="14" height="14"/>
  </g>
  <g id="stopped" fill="currentColor" class="ColorScheme-Highlight" transform="translate(128)">
    <rect width="128" height="128" fill="none"/>
    <path d="M64 0A64 64 0 0 0 0 64a64 64 0 0 0 64 64 64 64 0 0 0 64-64A64 64 0 0 0 64 0zm0 12a52 52 0 0 1 52 52 52 52 0 0 1-52 52 52 52 0 0 1-52-52 52 52 0 0 1 52-52z"/>
  </g>
  <g id="busywidget" fill="currentColor" class="ColorScheme-Highlight">
    <rect width="128" height="128" fill="none"/>
    <path d="M64 0A64 64 0 0 0 0 64a64 64 0 0 0 64 64 64 64 0 0 0 64-64h-12a52 52 0 0 1-52 52 52 52 0 0 1-52-52 52 52 0 0 1 52-52V0z"/>
  </g>
  <g id="22-22-busywidget" fill="currentColor" class="ColorScheme-Highlight" transform="translate(0 128)">
    <rect width="22" height="22" fill="none"/>
    <path d="M11 1A10 10 0 0 0 1 11a10 10 0 0 0 10 10 10 10 0 0 0 10-10h-3a7 7 0 0 1-7 7 7 7 0 0 1-7-7 7 7 0 0 1 7-7z"/>
  </g>
  <g id="16-16-busywidget" fill="currentColor" class="ColorScheme-Highlight" transform="translate(0 150)">
    <rect width="16" height="16" fill="none"/>
    <path d="M8 0a8 8 0 0 0-8 8 8 8 0 0 0 8 8 8 8 0 0 0 8-8h-2a6 6 0 0 1-6 6 6 6 0 0 1-6-6 6 6 0 0 1 6-6z"/>
  </g>
</svg>
