<svg xmlns="http://www.w3.org/2000/svg" width="112" height="48">
  <style id="current-color-scheme" type="text/css">
    .ColorScheme-Text{color:#202124}
  </style>
  <g id="menu" fill="currentColor" class="ColorScheme-Text">
    <rect width="16" height="16" fill="none"/>
    <path d="M2 13h12v-2H2zm0-4h12V7H2zm0-6v2h12V3z"/>
  </g>
  <g id="configure" fill="currentColor" class="ColorScheme-Text" transform="translate(16)">
    <rect width="16" height="16" fill="none"/>
    <path d="M14 8.78c.033-.25.05-.508.05-.783 0-.267-.017-.533-.058-.783l1.69-1.32a.408.408 0 0 0 .1-.508l-1.6-2.77c-.1-.183-.308-.242-.492-.183l-1.99.8a5.874 5.874 0 0 0-1.35-.783l-.3-2.12a.403.403 0 0 0-.4-.342h-3.2c-.2 0-.358.142-.392.342l-.3 2.12c-.492.2-.942.475-1.35.783l-1.99-.8a.399.399 0 0 0-.492.183l-1.59 2.77c-.1.175-.067.392.1.508l1.69 1.32c-.042.25-.075.525-.075.783s.016.533.058.783L.419 10.1a.408.408 0 0 0-.1.508l1.6 2.77c.1.183.308.242.492.183l1.99-.8c.417.317.858.583 1.35.783l.3 2.12c.042.2.2.342.4.342h3.2a.39.39 0 0 0 .392-.342l.3-2.12c.492-.2.942-.467 1.35-.783l1.99.8c.183.067.392 0 .492-.183l1.6-2.77c.1-.183.058-.392-.1-.508zM8.05 11c-1.65 0-3-1.35-3-3s1.35-3 3-3 3 1.35 3 3-1.35 3-3 3z"/>
  </g>
  <g id="rotate" fill="currentColor" class="ColorScheme-Text" transform="translate(32)">
    <rect width="16" height="16" fill="none"/>
    <path d="m8.18 1.67-.709.709 1.62 1.62h-4.1v1h4.1l-1.62 1.62.709.709 2.84-2.84-2.84-2.84zM3.5 5.01a.501.501 0 1 0 0 1.002.501.501 0 0 0 0-1.002zm6.99 1.56-3.92 3.92 3.54 3.54 3.92-3.92zM2.5 8.01a.501.501 0 1 0 0 1.002.501.501 0 0 0 0-1.002zm1 3.01a.501.501 0 1 0 0 1.002.501.501 0 0 0 0-1.002zm3.01 1a.501.501 0 1 0 0 1.002.501.501 0 0 0 0-1.002z"/>
  </g>
  <g id="move" fill="currentColor" class="ColorScheme-Text" transform="translate(48)">
    <rect width="16" height="16" fill="none"/>
    <path d="m8.01 1.99-2 3h4.01l-2-3zM5.01 6l-3 2 3 2V5.99zm6.01 0v4.01l3-2-3-2zm-3 1a1 1 0 1 0 0 2 1 1 0 1 0 0-2zm-2 4.01 2 3 2-3H6.01z"/>
  </g>
  <g id="size-vertical" fill="currentColor" class="ColorScheme-Text" transform="translate(64)">
    <rect width="16" height="16" fill="none"/>
    <path d="m8 1.99-2 3h4.01zm0 4.99a1 1 0 1 0 0 2 1 1 0 1 0 0-2zm-2 4.01 2 3 2-3z"/>
  </g>
  <g id="size-horizontal" fill="currentColor" class="ColorScheme-Text" transform="translate(80)">
    <rect width="16" height="16" fill="none"/>
    <path d="m14 8-3-2v4.01zM9.01 8a1 1 0 1 0-2 0 1 1 0 1 0 2 0zM5 6 2 8l3 2z"/>
  </g>
  <g id="size-diagonal-tr2bl" fill="currentColor" class="ColorScheme-Text" transform="translate(96)">
    <rect width="16" height="16" fill="none"/>
    <path d="M1 2v6.01h1V3h7.02V2H2zm9.99 0 .004.004v1h2.3l-3.29 3.29.707.707L14 3.71v2.3h1V2h-4.01zm3.04 6.01v5.01H7.01v1h8.02V8h-1zm-8.73.979-3.29 3.29v-2.3h-1v4.01h4.01l-.004-.004v-1h-2.3l3.29-3.29-.707-.707z"/>
  </g>
  <g id="size-diagonal-tl2br" fill="currentColor" class="ColorScheme-Text" transform="translate(0 16)">
    <rect width="16" height="16" fill="none"/>
    <path d="m15 2-1 .02H7v1h7v4.99h1V2zM1 2.021v4.01h1v-2.3l3.29 3.29.707-.707-3.29-3.29h2.3v-1l.004-.003H1zm-.031 5.97v6.01h8.02v-1h-7v-4.99l-.02-.017h-1zm9.73 1.02-.707.708 3.29 3.29h-2.3v1l-.004.003h4.01v-4.01h-1v2.3l-3.29-3.29z"/>
  </g>
  <g id="maximize" fill="currentColor" class="ColorScheme-Text" transform="translate(16 16)">
    <rect width="16" height="16" fill="none"/>
    <path d="M1 2v12h14V7.98h-1v5.01H2v-10h7.02v-1H1zm9.99 0 .004.004v1h2.3l-3.29 3.29.707.707L14 3.71v2.3h1V2h-4.01z"/>
  </g>
  <g id="unmaximize" fill="currentColor" class="ColorScheme-Text" transform="translate(32 16)">
    <rect width="16" height="16" fill="none"/>
    <path d="m1 2 .02.02v12h14V8.01h-1V13h-12V3.02h7v-1H1zm13.3.012-3.29 3.29v-2.3h-1v4.01h4.01l-.004-.004v-1h-2.3l3.29-3.29-.707-.707z"/>
  </g>
  <g id="status" fill="currentColor" class="ColorScheme-Text" transform="translate(48 16)">
    <rect width="16" height="16" fill="none"/>
    <path d="M2 2v12h12V2H3zm1 3.01h7.37l-1.72 6.43-1.97-3.42H3.01zm8.4 0h1.62v8.02H9.25zM3 9.02h3.09l2.32 4.01h-5.4z"/>
  </g>
  <g id="return-to-source" fill="currentColor" class="ColorScheme-Text" transform="translate(64 16)">
    <rect width="16" height="16" fill="none"/>
    <path d="M2 2v12h12V2zm4.01 1h4.01l-2 2zM3 7.01h10v2H3zm5.01 4.01 2 2H6z"/>
  </g>
  <g id="collapse" fill="currentColor" class="ColorScheme-Text" transform="translate(80 16)">
    <rect width="16" height="16" fill="none"/>
    <path d="m6.01 2.01 2 2 2-2H6zM2 7v2h12V7zm6.01 4.99-2 2h4.01l-2-2z"/>
  </g>
  <g id="restore" fill="currentColor" class="ColorScheme-Text" transform="translate(96 16)">
    <rect width="16" height="16" fill="none"/>
    <path d="m6.01 4 2-2 2 2zM2 7v2h12V7zm6.01 7-2-2h4.01z"/>
  </g>
  <g id="help" fill="currentColor" class="ColorScheme-Text" transform="translate(0 32)">
    <rect width="16" height="16" fill="none"/>
    <path d="M8.01 2A6.01 6.01 0 0 0 2 8.01a6.01 6.01 0 0 0 6.01 6.01 6.01 6.01 0 0 0 6.01-6.01A6.01 6.01 0 0 0 8.01 2zM2 3v2l2-2zm6.01 0a4.99 4.99 0 0 1 2.39.609l-1.52 1.52a3 3 0 0 0-.87-.131 3 3 0 0 0-.87.131l-1.52-1.52a4.99 4.99 0 0 1 2.39-.613zm4.01 0 2 2V3zm-8.4 2.61 1.52 1.52a3 3 0 0 0-.131.87 3 3 0 0 0 .131.87l-1.52 1.52A4.99 4.99 0 0 1 3.007 8a4.99 4.99 0 0 1 .609-2.39zm8.78.004a4.99 4.99 0 0 1 .613 2.39 4.99 4.99 0 0 1-.609 2.39l-1.52-1.52a3 3 0 0 0 .131-.87 3 3 0 0 0-.131-.87l1.52-1.52zM8.01 6a2 2 0 0 1 2 2 2 2 0 0 1-2 2 2 2 0 0 1-2-2 2 2 0 0 1 2-2zm-.87 4.88a3 3 0 0 0 .87.13 3 3 0 0 0 .87-.13l1.52 1.52a4.99 4.99 0 0 1-2.39.613 4.99 4.99 0 0 1-2.39-.61l1.52-1.52zM2 11.01v2h2zm12 0-2 2h2z"/>
  </g>
  <g id="delete" fill="currentColor" class="ColorScheme-Text" transform="translate(16 32)">
    <rect width="16" height="16" fill="none"/>
    <path d="M4 13c0 1.1.9 2 2 2h4c1.1 0 2-.9 2-2V5H4zm9-11h-2.5l-1-1h-3l-1 1H3v2h10z"/>
  </g>
  <g id="add" fill="currentColor" class="ColorScheme-Text" transform="translate(32 32)">
    <rect width="16" height="16" fill="none"/>
    <path d="M14 9H9v5H7V9H2V7h5V2h2v5h5z"/>
  </g>
  <g id="remove" fill="currentColor" class="ColorScheme-Text" transform="translate(48 32)">
    <rect width="16" height="16" fill="none"/>
    <path d="M14 9H2V7h12z"/>
  </g>
  <g id="filter" fill="currentColor" class="ColorScheme-Text" transform="translate(64 32)">
    <rect width="16" height="16" fill="none"/>
    <path d="M3 2a1 1 0 0 0-1 1c1.52 1.94 4 5 4 5v5a1 1 0 0 0 1 1h2a1 1 0 0 0 1-1V8s2.48-3.06 4-5a1 1 0 0 0-1-1z"/>
  </g>
  <g id="close" fill="currentColor" class="ColorScheme-Text" transform="translate(80 32)">
    <rect width="16" height="16" fill="none"/>
    <path d="M14 3.41 12.59 2 8 6.59 3.41 2 2 3.41 6.59 8 2 12.59 3.41 14 8 9.41 12.59 14 14 12.59 9.41 8Z"/>
  </g>
  <g id="showbackground" fill="currentColor" class="ColorScheme-Text" transform="translate(96 32)">
    <rect width="16" height="16" fill="none"/>
    <path d="M3 2c-.554 0-1 .446-1 1v10c0 .554.446 1 1 1h10c.554 0 1-.446 1-1V3c0-.554-.446-1-1-1zm.469 1h9.06c.26 0 .469.21.469.471v9.06c0 .26-.209.469-.469.469h-9.06A.468.468 0 0 1 3 12.531v-9.06A.47.47 0 0 1 3.469 3z"/>
    <path d="M8.22 5c.605 0 1.05.155 1.34.466.29.31.434.805.434 1.48v4.06h-.595l-.157-.931h-.037c-.216.317-.444.551-.686.703-.241.152-.567.227-.983.227-.451 0-.826-.137-1.12-.413-.297-.281-.427-.719-.427-1.31 0-.576.178-1.17.567-1.48.388-.317.99-.482 1.8-.511l.843-.033v-.206c0-.482-.09-.817-.27-1-.178-.188-.433-.28-.758-.28-.26 0-.507.046-.742.14a4.47 4.47 0 0 0-.658.303L6.52 5.5c.216-.137.472-.252.77-.346.297-.1.605-.152.927-.152zm.973 3.01-.731.033c-.619.028-1.05.136-1.29.339-.235.202-.353.547-.353.919 0 .325.083.564.25.715a.96.96 0 0 0 .658.227c.413 0 .759-.134 1.04-.4.284-.274.427-.694.427-1.25z"/>
  </g>
</svg>
