<svg xmlns="http://www.w3.org/2000/svg" width="144" height="108">
  <style id="current-color-scheme" type="text/css">
    .ColorScheme-Highlight{color:#1a73e8}
  </style>
  <rect id="hint-glow-radius" width="36" height="36" x="108" fill="#f60"/>
  <rect id="hint-tile-center" width="36" height="36" x="108" y="36" fill="#f60"/>
  <g id="topleft" fill="currentColor" class="ColorScheme-Highlight">
    <path d="M36 0A36 36 0 0 0 0 36h36z" opacity=".24"/>
    <path d="M36 12a24 24 0 0 0-24 24h24z" opacity=".32"/>
    <path d="M36 24a12 12 0 0 0-12 12h12z" opacity=".48"/>
  </g>
  <g id="top" fill="currentColor" class="ColorScheme-Highlight" transform="translate(36)">
    <rect width="36" height="36" opacity=".24"/>
    <rect width="36" height="24" y="12" opacity=".32"/>
    <rect width="36" height="12" y="24" opacity=".48"/>
  </g>
  <g id="topright" fill="currentColor" class="ColorScheme-Highlight" transform="translate(72)">
    <path d="M0 0a36 36 0 0 1 36 36H0z" opacity=".24"/>
    <path d="M0 12a24 24 0 0 1 24 24H0z" opacity=".32"/>
    <path d="M0 24a12 12 0 0 1 12 12H0z" opacity=".48"/>
  </g>
  <g id="left" fill="currentColor" class="ColorScheme-Highlight" transform="translate(0 36)">
    <rect width="36" height="36" opacity=".24"/>
    <rect width="24" height="36" x="12" opacity=".32"/>
    <rect width="12" height="36" x="24" opacity=".48"/>
  </g>
  <g id="center" fill="currentColor" class="ColorScheme-Highlight" transform="translate(36 36)">
    <rect width="36" height="36" opacity=".24"/>
    <rect width="36" height="36" opacity=".32"/>
    <rect width="36" height="36" opacity=".48"/>
  </g>
  <g id="right" fill="currentColor" class="ColorScheme-Highlight" transform="translate(72 36)">
    <rect width="36" height="36" opacity=".24"/>
    <rect width="24" height="36" opacity=".32"/>
    <rect width="12" height="36" opacity=".48"/>
  </g>
  <g id="bottomleft" fill="currentColor" class="ColorScheme-Highlight" transform="translate(0 72)">
    <path d="M36 36A36 36 0 0 1 0 0h36z" opacity=".24"/>
    <path d="M36 24A24 24 0 0 1 12 0h24z" opacity=".32"/>
    <path d="M36 12A12 12 0 0 1 24 0h12z" opacity=".48"/>
  </g>
  <g id="bottom" fill="currentColor" class="ColorScheme-Highlight" transform="translate(36 72)">
    <rect width="36" height="36" opacity=".24"/>
    <rect width="36" height="24" opacity=".32"/>
    <rect width="36" height="12" opacity=".48"/>
  </g>
  <g id="bottomright" fill="currentColor" class="ColorScheme-Highlight" transform="translate(72 72)">
    <path d="M0 36A36 36 0 0 0 36 0H0z" opacity=".24"/>
    <path d="M0 24A24 24 0 0 0 24 0H0z" opacity=".32"/>
    <path d="M0 12A12 12 0 0 0 12 0H0z" opacity=".48"/>
  </g>
</svg>
