<svg xmlns="http://www.w3.org/2000/svg" width="100" height="48">
  <style id="current-color-scheme" type="text/css">
    .ColorScheme-Text{color:#202124}
  </style>
  <g id="hint-stretch-borders" fill="#f0f" transform="translate(88 8)">
    <rect width="4" height="4"/>
  </g>
  <g id="header-topleft" transform="translate(8 8)">
    <rect width="8" height="8" fill="none"/>
  </g>
  <g id="header-top" transform="translate(20 8)">
    <rect width="8" height="8" fill="none"/>
  </g>
  <g id="header-topright" transform="translate(32 8)">
    <rect width="8" height="8" fill="none"/>
  </g>
  <g id="header-left" transform="translate(8 20)">
    <rect width="8" height="8" fill="none"/>
  </g>
  <g id="header-center" transform="translate(20 20)">
    <rect width="8" height="8" fill="none"/>
  </g>
  <g id="header-right" transform="translate(32 20)">
    <rect width="8" height="8" fill="none"/>
  </g>
  <g id="header-bottomleft" fill="currentColor" class="ColorScheme-Text" transform="translate(8 32)">
    <rect width="8" height="8" fill="none"/>
    <rect width="8" height="1" y="7" opacity=".2"/>
  </g>
  <g id="header-bottom" fill="currentColor" class="ColorScheme-Text" transform="translate(20 32)">
    <rect width="8" height="8" fill="none"/>
    <rect width="8" height="1" y="7" opacity=".2"/>
  </g>
  <g id="header-bottomright" fill="currentColor" class="ColorScheme-Text" transform="translate(32 32)">
    <rect width="8" height="8" fill="none"/>
    <rect width="8" height="1" y="7" opacity=".2"/>
  </g>
  <g id="hint-top-margin" fill="#f0f" transform="translate(23 8)">
    <rect width="2" height="6"/>
  </g>
  <g id="hint-bottom-margin" fill="#f0f" transform="translate(23 34)">
    <rect width="2" height="6"/>
  </g>
  <g id="hint-left-margin" fill="#f0f" transform="translate(8 23)">
    <rect width="6" height="2"/>
  </g>
  <g id="hint-right-margin" fill="#f0f" transform="translate(34 23)">
    <rect width="6" height="2"/>
  </g>
  <g id="footer-topleft" fill="currentColor" class="ColorScheme-Text" transform="translate(48 8)">
    <rect width="8" height="8" fill="none"/>
    <rect width="8" height="1" opacity=".2"/>
  </g>
  <g id="footer-top" fill="currentColor" class="ColorScheme-Text" transform="translate(60 8)">
    <rect width="8" height="8" fill="none"/>
    <rect width="8" height="1" opacity=".2"/>
  </g>
  <g id="footer-topright" fill="currentColor" class="ColorScheme-Text" transform="translate(72 8)">
    <rect width="8" height="8" fill="none"/>
    <rect width="8" height="1" opacity=".2"/>
  </g>
  <g id="footer-left" transform="translate(48 20)">
    <rect width="8" height="8" fill="none"/>
  </g>
  <g id="footer-center" transform="translate(60 20)">
    <rect width="8" height="8" fill="none"/>
  </g>
  <g id="footer-right" transform="translate(72 20)">
    <rect width="8" height="8" fill="none"/>
  </g>
  <g id="footer-bottomleft" transform="translate(48 32)">
    <rect width="8" height="8" fill="none"/>
  </g>
  <g id="footer-bottom" transform="translate(60 32)">
    <rect width="8" height="8" fill="none"/>
  </g>
  <g id="footer-bottomright" transform="translate(72 32)">
    <rect width="8" height="8" fill="none"/>
  </g>
</svg>
