<svg xmlns="http://www.w3.org/2000/svg" width="388" height="252">
  <style id="current-color-scheme" type="text/css">
    .ColorScheme-Text{color:#202124}
    .ColorScheme-Highlight{color:#1a73e8}
  </style>
  <g id="normal-hint-top-margin" fill="#f0f" transform="translate(35 8)">
    <rect width="2" height="5"/>
  </g>
  <g id="normal-hint-bottom-margin" fill="#f0f" transform="translate(35 59)">
    <rect width="2" height="5"/>
  </g>
  <g id="normal-hint-left-margin" fill="#f0f" transform="translate(8 35)">
    <rect width="4" height="2"/>
  </g>
  <g id="normal-hint-right-margin" fill="#f0f" transform="translate(59 35)">
    <rect width="5" height="2"/>
  </g>
  <g id="normal-topleft" transform="translate(8 8)">
    <rect width="20" height="20" fill="none"/>
  </g>
  <g id="normal-top" transform="translate(32 8)">
    <rect width="8" height="20" fill="none"/>
  </g>
  <g id="normal-topright" transform="translate(44 8)">
    <rect width="20" height="20" fill="none"/>
  </g>
  <g id="normal-left" transform="translate(8 32)">
    <rect width="20" height="8" fill="none"/>
  </g>
  <g id="normal-center" transform="translate(32 32)">
    <rect width="8" height="8" fill="none"/>
  </g>
  <g id="normal-right" transform="translate(44 32)">
    <rect width="20" height="8" fill="none"/>
  </g>
  <g id="normal-bottomleft" fill="currentColor" class="ColorScheme-Text" transform="translate(8 44)">
    <rect width="20" height="20" fill="none"/>
    <path d="M19 15a1 1 0 0 0 0 2h1v-2z" opacity=".75"/>
  </g>
  <g id="normal-bottom" fill="currentColor" class="ColorScheme-Text" transform="translate(32 44)">
    <rect width="8" height="20" fill="none"/>
    <rect width="8" height="2" y="15" opacity=".75"/>
  </g>
  <g id="normal-bottomright" fill="currentColor" class="ColorScheme-Text" transform="translate(44 44)">
    <rect width="20" height="20" fill="none"/>
    <path d="M0 15v2h1a1 1 0 0 0 0-2z" opacity=".75"/>
  </g>
  <g id="hover-topleft" fill="currentColor" class="ColorScheme-Text" transform="translate(68 8)">
    <rect width="20" height="20" fill="none"/>
    <path d="M18 4A16 16 0 0 0 2 20h18V4z" opacity=".08"/>
  </g>
  <g id="hover-top" fill="currentColor" class="ColorScheme-Text" transform="translate(92 8)">
    <rect width="8" height="20" fill="none"/>
    <rect width="8" height="16" y="4" opacity=".08"/>
  </g>
  <g id="hover-topright" fill="currentColor" class="ColorScheme-Text" transform="translate(104 8)">
    <rect width="20" height="20" fill="none"/>
    <path d="M0 4v16h18A16 16 0 0 0 2 4z" opacity=".08"/>
  </g>
  <g id="hover-left" fill="currentColor" class="ColorScheme-Text" transform="translate(68 32)">
    <rect width="20" height="8" fill="none"/>
    <rect width="18" height="8" x="2" opacity=".08"/>
  </g>
  <g id="hover-center" fill="currentColor" class="ColorScheme-Text" transform="translate(92 32)">
    <rect width="8" height="8" opacity=".08"/>
  </g>
  <g id="hover-right" fill="currentColor" class="ColorScheme-Text" transform="translate(104 32)">
    <rect width="20" height="8" fill="none"/>
    <rect width="18" height="8" opacity=".08"/>
  </g>
  <g id="hover-bottomleft" fill="currentColor" class="ColorScheme-Text" transform="translate(68 44)">
    <rect width="20" height="20" fill="none"/>
    <path d="M2 0a16 16 0 0 0 16 16h2V0z" opacity=".08"/>
    <path d="M19 15a1 1 0 0 0 0 2h1v-2z" opacity=".75"/>
  </g>
  <g id="hover-bottom" fill="currentColor" class="ColorScheme-Text" transform="translate(92 44)">
    <rect width="8" height="20" fill="none"/>
    <rect width="8" height="16" opacity=".08"/>
    <rect width="8" height="2" y="15" opacity=".75"/>
  </g>
  <g id="hover-bottomright" fill="currentColor" class="ColorScheme-Text" transform="translate(104 44)">
    <rect width="20" height="20" fill="none"/>
    <path d="M0 0v16h2A16 16 0 0 0 18 0z" opacity=".08"/>
    <path d="M0 15v2h1a1 1 0 0 0 0-2z" opacity=".75"/>
  </g>
  <g id="focus-topleft" fill="currentColor" class="ColorScheme-Text" transform="translate(128 8)">
    <rect width="20" height="20" fill="none"/>
    <path d="M18 4A16 16 0 0 0 2 20h18V4z" opacity=".16"/>
  </g>
  <g id="focus-top" fill="currentColor" class="ColorScheme-Text" transform="translate(152 8)">
    <rect width="8" height="20" fill="none"/>
    <rect width="8" height="16" y="4" opacity=".16"/>
  </g>
  <g id="focus-topright" fill="currentColor" class="ColorScheme-Text" transform="translate(164 8)">
    <rect width="20" height="20" fill="none"/>
    <path d="M0 4v16h18A16 16 0 0 0 2 4z" opacity=".16"/>
  </g>
  <g id="focus-left" fill="currentColor" class="ColorScheme-Text" transform="translate(128 32)">
    <rect width="20" height="8" fill="none"/>
    <rect width="18" height="8" x="2" opacity=".16"/>
  </g>
  <g id="focus-center" fill="currentColor" class="ColorScheme-Text" transform="translate(152 32)">
    <rect width="8" height="8" fill="none"/>
    <rect width="8" height="8" opacity=".16"/>
  </g>
  <g id="focus-right" fill="currentColor" class="ColorScheme-Text" transform="translate(164 32)">
    <rect width="20" height="8" fill="none"/>
    <rect width="18" height="8" opacity=".16"/>
  </g>
  <g id="focus-bottomleft" fill="currentColor" class="ColorScheme-Text" transform="translate(128 44)">
    <rect width="20" height="20" fill="none"/>
    <path d="M2 0a16 16 0 0 0 16 16h2V0z" opacity=".16"/>
    <path d="M19 15a1 1 0 0 0 0 2h1v-2z"/>
  </g>
  <g id="focus-bottom" fill="currentColor" class="ColorScheme-Text" transform="translate(152 44)">
    <rect width="8" height="20" fill="none"/>
    <rect width="8" height="16" opacity=".16"/>
    <rect width="8" height="2" y="15"/>
  </g>
  <g id="focus-bottomright" fill="currentColor" class="ColorScheme-Text" transform="translate(164 44)">
    <rect width="20" height="20" fill="none"/>
    <path d="M0 0v16h2A16 16 0 0 0 18 0z" opacity=".16"/>
    <path d="M0 15v2h1a1 1 0 0 0 0-2z"/>
  </g>
  <g id="minimized-topleft" transform="translate(188 8)">
    <rect width="20" height="20" fill="none"/>
  </g>
  <g id="minimized-top" transform="translate(212 8)">
    <rect width="8" height="20" fill="none"/>
  </g>
  <g id="minimized-topright" transform="translate(224 8)">
    <rect width="20" height="20" fill="none"/>
  </g>
  <g id="minimized-left" transform="translate(188 32)">
    <rect width="20" height="8" fill="none"/>
  </g>
  <g id="minimized-center" transform="translate(212 32)">
    <rect width="8" height="8" fill="none"/>
  </g>
  <g id="minimized-right" transform="translate(224 32)">
    <rect width="20" height="8" fill="none"/>
  </g>
  <g id="minimized-bottomleft" fill="currentColor" class="ColorScheme-Text" transform="translate(188 44)">
    <rect width="20" height="20" fill="none"/>
    <path d="M19 15a1 1 0 0 0 0 2h1v-2z" opacity=".38"/>
  </g>
  <g id="minimized-bottom" fill="currentColor" class="ColorScheme-Text" transform="translate(212 44)">
    <rect width="8" height="20" fill="none"/>
    <rect width="8" height="2" y="15" opacity=".38"/>
  </g>
  <g id="minimized-bottomright" fill="currentColor" class="ColorScheme-Text" transform="translate(224 44)">
    <rect width="20" height="20" fill="none"/>
    <path d="M0 15v2h1a1 1 0 0 0 0-2z" opacity=".38"/>
  </g>
  <g id="attention-topleft" fill="#fdd663" transform="translate(248 8)">
    <rect width="20" height="20" fill="none"/>
    <path d="M18 4A16 16 0 0 0 2 20h18V4z" opacity=".16"/>
  </g>
  <g id="attention-top" fill="#fdd663" transform="translate(272 8)">
    <rect width="8" height="20" fill="none"/>
    <rect width="8" height="16" y="4" opacity=".16"/>
  </g>
  <g id="attention-topright" fill="#fdd663" transform="translate(284 8)">
    <rect width="20" height="20" fill="none"/>
    <path d="M0 4v16h18A16 16 0 0 0 2 4z" opacity=".16"/>
  </g>
  <g id="attention-left" fill="#fdd663" transform="translate(248 32)">
    <rect width="20" height="8" fill="none"/>
    <rect width="18" height="8" x="2" opacity=".16"/>
  </g>
  <g id="attention-center" fill="#fdd663" transform="translate(272 32)">
    <rect width="8" height="8" fill="none"/>
    <rect width="8" height="8" opacity=".16"/>
  </g>
  <g id="attention-right" fill="#fdd663" transform="translate(284 32)">
    <rect width="20" height="8" fill="none"/>
    <rect width="18" height="8" opacity=".16"/>
  </g>
  <g id="attention-bottomleft" fill="#fdd663" transform="translate(248 44)">
    <rect width="20" height="20" fill="none"/>
    <path d="M2 0a16 16 0 0 0 16 16h2V0z" opacity=".16"/>
    <path d="M19 15a1 1 0 0 0 0 2h1v-2z"/>
  </g>
  <g id="attention-bottom" fill="#fdd663" transform="translate(272 44)">
    <rect width="8" height="20" fill="none"/>
    <rect width="8" height="16" opacity=".16"/>
    <rect width="8" height="2" y="15"/>
  </g>
  <g id="attention-bottomright" fill="#fdd663" transform="translate(284 44)">
    <rect width="20" height="20" fill="none"/>
    <path d="M0 0v16h2A16 16 0 0 0 18 0z" opacity=".16"/>
    <path d="M0 15v2h1a1 1 0 0 0 0-2z"/>
  </g>
  <g id="progress-topleft" fill="currentColor" class="ColorScheme-Highlight" transform="translate(308 8)">
    <rect width="20" height="20" fill="none"/>
    <path d="M18 4A16 16 0 0 0 2 20h18V4z" opacity=".38"/>
  </g>
  <g id="progress-top" fill="currentColor" class="ColorScheme-Highlight" transform="translate(332 8)">
    <rect width="8" height="20" fill="none"/>
    <rect width="8" height="16" y="4" opacity=".38"/>
  </g>
  <g id="progress-topright" fill="currentColor" class="ColorScheme-Highlight" transform="translate(344 8)">
    <rect width="20" height="20" fill="none"/>
    <path d="M0 4v16h18A16 16 0 0 0 2 4z" opacity=".38"/>
  </g>
  <g id="progress-left" fill="currentColor" class="ColorScheme-Highlight" transform="translate(308 32)">
    <rect width="20" height="8" fill="none"/>
    <rect width="18" height="8" x="2" opacity=".38"/>
  </g>
  <g id="progress-center" fill="currentColor" class="ColorScheme-Highlight" transform="translate(332 32)">
    <rect width="8" height="8" fill="none"/>
    <rect width="8" height="8" opacity=".38"/>
  </g>
  <g id="progress-right" fill="currentColor" class="ColorScheme-Highlight" transform="translate(344 32)">
    <rect width="20" height="8" fill="none"/>
    <rect width="18" height="8" opacity=".38"/>
  </g>
  <g id="progress-bottomleft" fill="currentColor" class="ColorScheme-Highlight" transform="translate(308 44)">
    <rect width="20" height="20" fill="none"/>
    <path d="M2 0a16 16 0 0 0 16 16h2V0z" opacity=".38"/>
  </g>
  <g id="progress-bottom" fill="currentColor" class="ColorScheme-Highlight" transform="translate(332 44)">
    <rect width="8" height="20" fill="none"/>
    <rect width="8" height="16" opacity=".38"/>
  </g>
  <g id="progress-bottomright" fill="currentColor" class="ColorScheme-Highlight" transform="translate(344 44)">
    <rect width="20" height="20" fill="none"/>
    <path d="M0 0v16h2A16 16 0 0 0 18 0z" opacity=".38"/>
  </g>
  <g id="north-normal-topleft" fill="currentColor" class="ColorScheme-Text" transform="translate(8 68)">
    <rect width="20" height="20" fill="none"/>
    <path d="M19 3a1 1 0 0 0 0 2h1V3z" opacity=".75"/>
  </g>
  <g id="north-normal-top" fill="currentColor" class="ColorScheme-Text" transform="translate(32 68)">
    <rect width="8" height="20" fill="none"/>
    <rect width="8" height="2" y="3" opacity=".75"/>
  </g>
  <g id="north-normal-topright" fill="currentColor" class="ColorScheme-Text" transform="translate(44 68)">
    <rect width="20" height="20" fill="none"/>
    <path d="M0 3v2h1a1 1 0 0 0 0-2z" opacity=".75"/>
  </g>
  <g id="north-normal-left" transform="translate(8 92)">
    <rect width="20" height="8" fill="none"/>
  </g>
  <g id="north-normal-center" transform="translate(32 92)">
    <rect width="8" height="8" fill="none"/>
  </g>
  <g id="north-normal-right" transform="translate(44 92)">
    <rect width="20" height="8" fill="none"/>
  </g>
  <g id="north-normal-bottomleft" transform="translate(8 104)">
    <rect width="20" height="20" fill="none"/>
  </g>
  <g id="north-normal-bottom" transform="translate(32 104)">
    <rect width="8" height="20" fill="none"/>
  </g>
  <g id="north-normal-bottomright" transform="translate(44 104)">
    <rect width="20" height="20" fill="none"/>
  </g>
  <g id="north-hover-topleft" fill="currentColor" class="ColorScheme-Text" transform="translate(68 68)">
    <rect width="20" height="20" fill="none"/>
    <path d="M18 4A16 16 0 0 0 2 20h18V4z" opacity=".08"/>
    <path d="M19 3a1 1 0 0 0 0 2h1V3z" opacity=".75"/>
  </g>
  <g id="north-hover-top" fill="currentColor" class="ColorScheme-Text" transform="translate(92 68)">
    <rect width="8" height="20" fill="none"/>
    <rect width="8" height="16" y="4" opacity=".08"/>
    <rect width="8" height="2" y="3" opacity=".75"/>
  </g>
  <g id="north-hover-topright" fill="currentColor" class="ColorScheme-Text" transform="translate(104 68)">
    <rect width="20" height="20" fill="none"/>
    <path d="M0 4v16h18A16 16 0 0 0 2 4z" opacity=".08"/>
    <path d="M0 3v2h1a1 1 0 0 0 0-2z" opacity=".75"/>
  </g>
  <g id="north-hover-left" fill="currentColor" class="ColorScheme-Text" transform="translate(68 92)">
    <rect width="20" height="8" fill="none"/>
    <rect width="18" height="8" x="2" opacity=".08"/>
  </g>
  <g id="north-hover-center" fill="currentColor" class="ColorScheme-Text" transform="translate(92 92)">
    <rect width="8" height="8" opacity=".08"/>
  </g>
  <g id="north-hover-right" fill="currentColor" class="ColorScheme-Text" transform="translate(104 92)">
    <rect width="20" height="8" fill="none"/>
    <rect width="18" height="8" opacity=".08"/>
  </g>
  <g id="north-hover-bottomleft" fill="currentColor" class="ColorScheme-Text" transform="translate(68 104)">
    <rect width="20" height="20" fill="none"/>
    <path d="M2 0a16 16 0 0 0 16 16h2V0z" opacity=".08"/>
  </g>
  <g id="north-hover-bottom" fill="currentColor" class="ColorScheme-Text" transform="translate(92 104)">
    <rect width="8" height="20" fill="none"/>
    <rect width="8" height="16" opacity=".08"/>
  </g>
  <g id="north-hover-bottomright" fill="currentColor" class="ColorScheme-Text" transform="translate(104 104)">
    <rect width="20" height="20" fill="none"/>
    <path d="M0 0v16h2A16 16 0 0 0 18 0z" opacity=".08"/>
  </g>
  <g id="north-focus-topleft" fill="currentColor" class="ColorScheme-Text" transform="translate(128 68)">
    <rect width="20" height="20" fill="none"/>
    <path d="M18 4A16 16 0 0 0 2 20h18V4z" opacity=".16"/>
    <path d="M19 3a1 1 0 0 0 0 2h1V3z" opacity=".75"/>
  </g>
  <g id="north-focus-top" fill="currentColor" class="ColorScheme-Text" transform="translate(152 68)">
    <rect width="8" height="20" fill="none"/>
    <rect width="8" height="16" y="4" opacity=".16"/>
    <rect width="8" height="2" y="3" opacity=".75"/>
  </g>
  <g id="north-focus-topright" fill="currentColor" class="ColorScheme-Text" transform="translate(164 68)">
    <rect width="20" height="20" fill="none"/>
    <path d="M0 4v16h18A16 16 0 0 0 2 4z" opacity=".16"/>
    <path d="M0 3v2h1a1 1 0 0 0 0-2z" opacity=".75"/>
  </g>
  <g id="north-focus-left" fill="currentColor" class="ColorScheme-Text" transform="translate(128 92)">
    <rect width="20" height="8" fill="none"/>
    <rect width="18" height="8" x="2" opacity=".16"/>
  </g>
  <g id="north-focus-center" fill="currentColor" class="ColorScheme-Text" transform="translate(152 92)">
    <rect width="8" height="8" fill="none"/>
    <rect width="8" height="8" opacity=".16"/>
  </g>
  <g id="north-focus-right" fill="currentColor" class="ColorScheme-Text" transform="translate(164 92)">
    <rect width="20" height="8" fill="none"/>
    <rect width="18" height="8" opacity=".16"/>
  </g>
  <g id="north-focus-bottomleft" fill="currentColor" class="ColorScheme-Text" transform="translate(128 104)">
    <rect width="20" height="20" fill="none"/>
    <path d="M2 0a16 16 0 0 0 16 16h2V0z" opacity=".16"/>
  </g>
  <g id="north-focus-bottom" fill="currentColor" class="ColorScheme-Text" transform="translate(152 104)">
    <rect width="8" height="20" fill="none"/>
    <rect width="8" height="16" opacity=".16"/>
  </g>
  <g id="north-focus-bottomright" fill="currentColor" class="ColorScheme-Text" transform="translate(164 104)">
    <rect width="20" height="20" fill="none"/>
    <path d="M0 0v16h2A16 16 0 0 0 18 0z" opacity=".16"/>
  </g>
  <g id="north-minimized-topleft" fill="currentColor" class="ColorScheme-Text" transform="translate(188 68)">
    <rect width="20" height="20" fill="none"/>
    <path d="M19 3a1 1 0 0 0 0 2h1V3z" opacity=".2"/>
  </g>
  <g id="north-minimized-top" fill="currentColor" class="ColorScheme-Text" transform="translate(212 68)">
    <rect width="8" height="20" fill="none"/>
    <rect width="8" height="2" y="3" opacity=".2"/>
  </g>
  <g id="north-minimized-topright" fill="currentColor" class="ColorScheme-Text" transform="translate(224 68)">
    <rect width="20" height="20" fill="none"/>
    <path d="M0 3v2h1a1 1 0 0 0 0-2z" opacity=".2"/>
  </g>
  <g id="north-minimized-left" transform="translate(188 92)">
    <rect width="20" height="8" fill="none"/>
  </g>
  <g id="north-minimized-center" transform="translate(212 92)">
    <rect width="8" height="8" fill="none"/>
  </g>
  <g id="north-minimized-right" transform="translate(224 92)">
    <rect width="20" height="8" fill="none"/>
  </g>
  <g id="north-minimized-bottomleft" transform="translate(188 104)">
    <rect width="20" height="20" fill="none"/>
  </g>
  <g id="north-minimized-bottom" transform="translate(212 104)">
    <rect width="8" height="20" fill="none"/>
  </g>
  <g id="north-minimized-bottomright" transform="translate(224 104)">
    <rect width="20" height="20" fill="none"/>
  </g>
  <g id="north-attention-topleft" fill="#fdd663" transform="translate(248 68)">
    <rect width="20" height="20" fill="none"/>
    <path d="M18 4A16 16 0 0 0 2 20h18V4z" opacity=".16"/>
    <path d="M19 3a1 1 0 0 0 0 2h1V3z"/>
  </g>
  <g id="north-attention-top" fill="#fdd663" transform="translate(272 68)">
    <rect width="8" height="20" fill="none"/>
    <rect width="8" height="16" y="4" opacity=".16"/>
    <rect width="8" height="2" y="3"/>
  </g>
  <g id="north-attention-topright" fill="#fdd663" transform="translate(284 68)">
    <rect width="20" height="20" fill="none"/>
    <path d="M0 4v16h18A16 16 0 0 0 2 4z" opacity=".16"/>
    <path d="M0 3v2h1a1 1 0 0 0 0-2z"/>
  </g>
  <g id="north-attention-left" fill="#fdd663" transform="translate(248 92)">
    <rect width="20" height="8" fill="none"/>
    <rect width="18" height="8" x="2" opacity=".16"/>
  </g>
  <g id="north-attention-center" fill="#fdd663" transform="translate(272 92)">
    <rect width="8" height="8" fill="none"/>
    <rect width="8" height="8" opacity=".16"/>
  </g>
  <g id="north-attention-right" fill="#fdd663" transform="translate(284 92)">
    <rect width="20" height="8" fill="none"/>
    <rect width="18" height="8" opacity=".16"/>
  </g>
  <g id="north-attention-bottomleft" fill="#fdd663" transform="translate(248 104)">
    <rect width="20" height="20" fill="none"/>
    <path d="M2 0a16 16 0 0 0 16 16h2V0z" opacity=".16"/>
  </g>
  <g id="north-attention-bottom" fill="#fdd663" transform="translate(272 104)">
    <rect width="8" height="20" fill="none"/>
    <rect width="8" height="16" opacity=".16"/>
  </g>
  <g id="north-attention-bottomright" fill="#fdd663" transform="translate(284 104)">
    <rect width="20" height="20" fill="none"/>
    <path d="M0 0v16h2A16 16 0 0 0 18 0z" opacity=".16"/>
  </g>
  <g id="north-progress-topleft" fill="currentColor" class="ColorScheme-Highlight" transform="translate(308 68)">
    <rect width="20" height="20" fill="none"/>
    <path d="M18 4A16 16 0 0 0 2 20h18V4z" opacity=".38"/>
  </g>
  <g id="north-progress-top" fill="currentColor" class="ColorScheme-Highlight" transform="translate(332 68)">
    <rect width="8" height="20" fill="none"/>
    <rect width="8" height="16" y="4" opacity=".38"/>
  </g>
  <g id="north-progress-topright" fill="currentColor" class="ColorScheme-Highlight" transform="translate(344 68)">
    <rect width="20" height="20" fill="none"/>
    <path d="M0 4v16h18A16 16 0 0 0 2 4z" opacity=".38"/>
  </g>
  <g id="north-progress-left" fill="currentColor" class="ColorScheme-Highlight" transform="translate(308 92)">
    <rect width="20" height="8" fill="none"/>
    <rect width="18" height="8" x="2" opacity=".38"/>
  </g>
  <g id="north-progress-center" fill="currentColor" class="ColorScheme-Highlight" transform="translate(332 92)">
    <rect width="8" height="8" fill="none"/>
    <rect width="8" height="8" opacity=".38"/>
  </g>
  <g id="north-progress-right" fill="currentColor" class="ColorScheme-Highlight" transform="translate(344 92)">
    <rect width="20" height="8" fill="none"/>
    <rect width="18" height="8" opacity=".38"/>
  </g>
  <g id="north-progress-bottomleft" fill="currentColor" class="ColorScheme-Highlight" transform="translate(308 104)">
    <rect width="20" height="20" fill="none"/>
    <path d="M2 0a16 16 0 0 0 16 16h2V0z" opacity=".38"/>
  </g>
  <g id="north-progress-bottom" fill="currentColor" class="ColorScheme-Highlight" transform="translate(332 104)">
    <rect width="8" height="20" fill="none"/>
    <rect width="8" height="16" opacity=".38"/>
  </g>
  <g id="north-progress-bottomright" fill="currentColor" class="ColorScheme-Highlight" transform="translate(344 104)">
    <rect width="20" height="20" fill="none"/>
    <path d="M0 0v16h2A16 16 0 0 0 18 0z" opacity=".38"/>
  </g>
  <g id="west-normal-topleft" fill="currentColor" class="ColorScheme-Text" transform="translate(8 128)">
    <rect width="20" height="20" fill="none"/>
    <path d="M3 19v1h2v-1a1 1 0 0 0-2 0z" opacity=".75"/>
  </g>
  <g id="west-normal-top" transform="translate(32 128)">
    <rect width="8" height="20" fill="none"/>
  </g>
  <g id="west-normal-topright" transform="translate(44 128)">
    <rect width="20" height="20" fill="none"/>
  </g>
  <g id="west-normal-left" fill="currentColor" class="ColorScheme-Text" transform="translate(8 152)">
    <rect width="20" height="8" fill="none"/>
    <rect width="2" height="8" x="3" opacity=".75"/>
  </g>
  <g id="west-normal-center" transform="translate(32 152)">
    <rect width="8" height="8" fill="none"/>
  </g>
  <g id="west-normal-right" transform="translate(44 152)">
    <rect width="20" height="8" fill="none"/>
  </g>
  <g id="west-normal-bottomleft" fill="currentColor" class="ColorScheme-Text" transform="translate(8 164)">
    <rect width="20" height="20" fill="none"/>
    <path d="M3 0v1a1 1 0 0 0 2 0V0z" opacity=".75"/>
  </g>
  <g id="west-normal-bottom" transform="translate(32 164)">
    <rect width="8" height="20" fill="none"/>
  </g>
  <g id="west-normal-bottomright" transform="translate(44 164)">
    <rect width="20" height="20" fill="none"/>
  </g>
  <g id="west-hover-topleft" fill="currentColor" class="ColorScheme-Text" transform="translate(68 128)">
    <rect width="20" height="20" fill="none"/>
    <path d="M20 2A16 16 0 0 0 4 18v2h16z" opacity=".08"/>
    <path d="M3 19v1h2v-1a1 1 0 0 0-2 0z" opacity=".75"/>
  </g>
  <g id="west-hover-top" fill="currentColor" class="ColorScheme-Text" transform="translate(92 128)">
    <rect width="8" height="20" fill="none"/>
    <rect width="8" height="18" y="2" opacity=".08"/>
  </g>
  <g id="west-hover-topright" fill="currentColor" class="ColorScheme-Text" transform="translate(104 128)">
    <rect width="20" height="20" fill="none"/>
    <path d="M0 2v18h16v-2A16 16 0 0 0 0 2z" opacity=".08"/>
  </g>
  <g id="west-hover-left" fill="currentColor" class="ColorScheme-Text" transform="translate(68 152)">
    <rect width="20" height="8" fill="none"/>
    <rect width="16" height="8" x="4" opacity=".08"/>
    <rect width="2" height="8" x="3" opacity=".75"/>
  </g>
  <g id="west-hover-center" fill="currentColor" class="ColorScheme-Text" transform="translate(92 152)">
    <rect width="8" height="8" opacity=".08"/>
  </g>
  <g id="west-hover-right" fill="currentColor" class="ColorScheme-Text" transform="translate(104 152)">
    <rect width="20" height="8" fill="none"/>
    <rect width="16" height="8" opacity=".08"/>
  </g>
  <g id="west-hover-bottomleft" fill="currentColor" class="ColorScheme-Text" transform="translate(68 164)">
    <rect width="20" height="20" fill="none"/>
    <path d="M4 0v2a16 16 0 0 0 16 16V0z" opacity=".08"/>
    <path d="M3 0v1a1 1 0 0 0 2 0V0z" opacity=".75"/>
  </g>
  <g id="west-hover-bottom" fill="currentColor" class="ColorScheme-Text" transform="translate(92 164)">
    <rect width="8" height="20" fill="none"/>
    <rect width="8" height="18" opacity=".08"/>
  </g>
  <g id="west-hover-bottomright" fill="currentColor" class="ColorScheme-Text" transform="translate(104 164)">
    <rect width="20" height="20" fill="none"/>
    <path d="M0 0v18A16 16 0 0 0 16 2V0z" opacity=".08"/>
  </g>
  <g id="west-focus-topleft" fill="currentColor" class="ColorScheme-Text" transform="translate(128 128)">
    <rect width="20" height="20" fill="none"/>
    <path d="M20 2A16 16 0 0 0 4 18v2h16z" opacity=".16"/>
    <path d="M3 19v1h2v-1a1 1 0 0 0-2 0z" opacity=".75"/>
  </g>
  <g id="west-focus-top" fill="currentColor" class="ColorScheme-Text" transform="translate(152 128)">
    <rect width="8" height="20" fill="none"/>
    <rect width="8" height="18" y="2" opacity=".16"/>
  </g>
  <g id="west-focus-topright" fill="currentColor" class="ColorScheme-Text" transform="translate(164 128)">
    <rect width="20" height="20" fill="none"/>
    <path d="M0 2v18h16v-2A16 16 0 0 0 0 2z" opacity=".16"/>
  </g>
  <g id="west-focus-left" fill="currentColor" class="ColorScheme-Text" transform="translate(128 152)">
    <rect width="20" height="8" fill="none"/>
    <rect width="16" height="8" x="4" opacity=".16"/>
    <rect width="2" height="8" x="3" opacity=".75"/>
  </g>
  <g id="west-focus-center" fill="currentColor" class="ColorScheme-Text" transform="translate(152 152)">
    <rect width="8" height="8" fill="none"/>
    <rect width="8" height="8" opacity=".16"/>
  </g>
  <g id="west-focus-right" fill="currentColor" class="ColorScheme-Text" transform="translate(164 152)">
    <rect width="20" height="8" fill="none"/>
    <rect width="16" height="8" opacity=".16"/>
  </g>
  <g id="west-focus-bottomleft" fill="currentColor" class="ColorScheme-Text" transform="translate(128 164)">
    <rect width="20" height="20" fill="none"/>
    <path d="M4 0v2a16 16 0 0 0 16 16V0z" opacity=".16"/>
    <path d="M3 0v1a1 1 0 0 0 2 0V0z" opacity=".75"/>
  </g>
  <g id="west-focus-bottom" fill="currentColor" class="ColorScheme-Text" transform="translate(152 164)">
    <rect width="8" height="20" fill="none"/>
    <rect width="8" height="18" opacity=".16"/>
  </g>
  <g id="west-focus-bottomright" fill="currentColor" class="ColorScheme-Text" transform="translate(164 164)">
    <rect width="20" height="20" fill="none"/>
    <path d="M0 0v18A16 16 0 0 0 16 2V0z" opacity=".16"/>
  </g>
  <g id="west-minimized-topleft" fill="currentColor" class="ColorScheme-Text" transform="translate(188 128)">
    <rect width="20" height="20" fill="none"/>
    <path d="M3 19v1h2v-1a1 1 0 0 0-2 0z" opacity=".2"/>
  </g>
  <g id="west-minimized-top" transform="translate(212 128)">
    <rect width="8" height="20" fill="none"/>
  </g>
  <g id="west-minimized-topright" transform="translate(224 128)">
    <rect width="20" height="20" fill="none"/>
  </g>
  <g id="west-minimized-left" fill="currentColor" class="ColorScheme-Text" transform="translate(188 152)">
    <rect width="20" height="8" fill="none"/>
    <rect width="2" height="8" x="3" opacity=".2"/>
  </g>
  <g id="west-minimized-center" transform="translate(212 152)">
    <rect width="8" height="8" fill="none"/>
  </g>
  <g id="west-minimized-right" transform="translate(224 152)">
    <rect width="20" height="8" fill="none"/>
  </g>
  <g id="west-minimized-bottomleft" fill="currentColor" class="ColorScheme-Text" transform="translate(188 164)">
    <rect width="20" height="20" fill="none"/>
    <path d="M3 0v1a1 1 0 0 0 2 0V0z" opacity=".2"/>
  </g>
  <g id="west-minimized-bottom" transform="translate(212 164)">
    <rect width="8" height="20" fill="none"/>
  </g>
  <g id="west-minimized-bottomright" transform="translate(224 164)">
    <rect width="20" height="20" fill="none"/>
  </g>
  <g id="west-attention-topleft" fill="#fdd663" transform="translate(248 128)">
    <rect width="20" height="20" fill="none"/>
    <path d="M20 2A16 16 0 0 0 4 18v2h16z" opacity=".16"/>
    <path d="M3 19v1h2v-1a1 1 0 0 0-2 0z"/>
  </g>
  <g id="west-attention-top" fill="#fdd663" transform="translate(272 128)">
    <rect width="8" height="20" fill="none"/>
    <rect width="8" height="18" y="2" opacity=".16"/>
  </g>
  <g id="west-attention-topright" fill="#fdd663" transform="translate(284 128)">
    <rect width="20" height="20" fill="none"/>
    <path d="M0 2v18h16v-2A16 16 0 0 0 0 2z" opacity=".16"/>
  </g>
  <g id="west-attention-left" fill="#fdd663" transform="translate(248 152)">
    <rect width="20" height="8" fill="none"/>
    <rect width="16" height="8" x="4" opacity=".16"/>
    <rect width="2" height="8" x="3"/>
  </g>
  <g id="west-attention-center" fill="#fdd663" transform="translate(272 152)">
    <rect width="8" height="8" fill="none"/>
    <rect width="8" height="8" opacity=".16"/>
  </g>
  <g id="west-attention-right" fill="#fdd663" transform="translate(284 152)">
    <rect width="20" height="8" fill="none"/>
    <rect width="16" height="8" opacity=".16"/>
  </g>
  <g id="west-attention-bottomleft" fill="#fdd663" transform="translate(248 164)">
    <rect width="20" height="20" fill="none"/>
    <path d="M4 0v2a16 16 0 0 0 16 16V0z" opacity=".16"/>
    <path d="M3 0v1a1 1 0 0 0 2 0V0z"/>
  </g>
  <g id="west-attention-bottom" fill="#fdd663" transform="translate(272 164)">
    <rect width="8" height="20" fill="none"/>
    <rect width="8" height="18" opacity=".16"/>
  </g>
  <g id="west-attention-bottomright" fill="#fdd663" transform="translate(284 164)">
    <rect width="20" height="20" fill="none"/>
    <path d="M0 0v18A16 16 0 0 0 16 2V0z" opacity=".16"/>
  </g>
  <g id="west-progress-topleft" fill="currentColor" class="ColorScheme-Highlight" transform="translate(308 128)">
    <rect width="20" height="20" fill="none"/>
    <path d="M20 2A16 16 0 0 0 4 18v2h16z" opacity=".38"/>
  </g>
  <g id="west-progress-top" fill="currentColor" class="ColorScheme-Highlight" transform="translate(332 128)">
    <rect width="8" height="20" fill="none"/>
    <rect width="8" height="18" y="2" opacity=".38"/>
  </g>
  <g id="west-progress-topright" fill="currentColor" class="ColorScheme-Highlight" transform="translate(344 128)">
    <rect width="20" height="20" fill="none"/>
    <path d="M0 2v18h16v-2A16 16 0 0 0 0 2z" opacity=".38"/>
  </g>
  <g id="west-progress-left" fill="currentColor" class="ColorScheme-Highlight" transform="translate(308 152)">
    <rect width="20" height="8" fill="none"/>
    <rect width="16" height="8" x="4" opacity=".38"/>
  </g>
  <g id="west-progress-center" fill="currentColor" class="ColorScheme-Highlight" transform="translate(332 152)">
    <rect width="8" height="8" fill="none"/>
    <rect width="8" height="8" opacity=".38"/>
  </g>
  <g id="west-progress-right" fill="currentColor" class="ColorScheme-Highlight" transform="translate(344 152)">
    <rect width="20" height="8" fill="none"/>
    <rect width="16" height="8" opacity=".38"/>
  </g>
  <g id="west-progress-bottomleft" fill="currentColor" class="ColorScheme-Highlight" transform="translate(308 164)">
    <rect width="20" height="20" fill="none"/>
    <path d="M4 0v2a16 16 0 0 0 16 16V0z" opacity=".38"/>
  </g>
  <g id="west-progress-bottom" fill="currentColor" class="ColorScheme-Highlight" transform="translate(332 164)">
    <rect width="8" height="20" fill="none"/>
    <rect width="8" height="18" opacity=".38"/>
  </g>
  <g id="west-progress-bottomright" fill="currentColor" class="ColorScheme-Highlight" transform="translate(344 164)">
    <rect width="20" height="20" fill="none"/>
    <path d="M0 0v18A16 16 0 0 0 16 2V0z" opacity=".38"/>
  </g>
  <g id="east-normal-topleft" transform="translate(8 188)">
    <rect width="20" height="20" fill="none"/>
  </g>
  <g id="east-normal-top" transform="translate(32 188)">
    <rect width="8" height="20" fill="none"/>
  </g>
  <g id="east-normal-topright" fill="currentColor" class="ColorScheme-Text" transform="translate(44 188)">
    <rect width="20" height="20" fill="none"/>
    <path d="M15 19v1h2v-1a1 1 0 0 0-2 0z" opacity=".75"/>
  </g>
  <g id="east-normal-left" transform="translate(8 212)">
    <rect width="20" height="8" fill="none"/>
  </g>
  <g id="east-normal-center" transform="translate(32 212)">
    <rect width="8" height="8" fill="none"/>
  </g>
  <g id="east-normal-right" fill="currentColor" class="ColorScheme-Text" transform="translate(44 212)">
    <rect width="20" height="8" fill="none"/>
    <rect width="2" height="8" x="15" opacity=".75"/>
  </g>
  <g id="east-normal-bottomleft" transform="translate(8 224)">
    <rect width="20" height="20" fill="none"/>
  </g>
  <g id="east-normal-bottom" transform="translate(32 224)">
    <rect width="8" height="20" fill="none"/>
  </g>
  <g id="east-normal-bottomright" fill="currentColor" class="ColorScheme-Text" transform="translate(44 224)">
    <rect width="20" height="20" fill="none"/>
    <path d="M15 0v1a1 1 0 0 0 2 0V0z" opacity=".75"/>
  </g>
  <g id="east-hover-topleft" fill="currentColor" class="ColorScheme-Text" transform="translate(68 188)">
    <rect width="20" height="20" fill="none"/>
    <path d="M20 2A16 16 0 0 0 4 18v2h16z" opacity=".08"/>
  </g>
  <g id="east-hover-top" fill="currentColor" class="ColorScheme-Text" transform="translate(92 188)">
    <rect width="8" height="20" fill="none"/>
    <rect width="8" height="18" y="2" opacity=".08"/>
  </g>
  <g id="east-hover-topright" fill="currentColor" class="ColorScheme-Text" transform="translate(104 188)">
    <rect width="20" height="20" fill="none"/>
    <path d="M0 2v18h16v-2A16 16 0 0 0 0 2z" opacity=".08"/>
    <path d="M15 19v1h2v-1a1 1 0 0 0-2 0z" opacity=".75"/>
  </g>
  <g id="east-hover-left" fill="currentColor" class="ColorScheme-Text" transform="translate(68 212)">
    <rect width="20" height="8" fill="none"/>
    <rect width="16" height="8" x="4" opacity=".08"/>
  </g>
  <g id="east-hover-center" fill="currentColor" class="ColorScheme-Text" transform="translate(92 212)">
    <rect width="8" height="8" opacity=".08"/>
  </g>
  <g id="east-hover-right" fill="currentColor" class="ColorScheme-Text" transform="translate(104 212)">
    <rect width="20" height="8" fill="none"/>
    <rect width="16" height="8" opacity=".08"/>
    <rect width="2" height="8" x="15" opacity=".75"/>
  </g>
  <g id="east-hover-bottomleft" fill="currentColor" class="ColorScheme-Text" transform="translate(68 224)">
    <rect width="20" height="20" fill="none"/>
    <path d="M4 0v2a16 16 0 0 0 16 16V0z" opacity=".08"/>
  </g>
  <g id="east-hover-bottom" fill="currentColor" class="ColorScheme-Text" transform="translate(92 224)">
    <rect width="8" height="20" fill="none"/>
    <rect width="8" height="18" opacity=".08"/>
  </g>
  <g id="east-hover-bottomright" fill="currentColor" class="ColorScheme-Text" transform="translate(104 224)">
    <rect width="20" height="20" fill="none"/>
    <path d="M0 0v18A16 16 0 0 0 16 2V0z" opacity=".08"/>
    <path d="M15 0v1a1 1 0 0 0 2 0V0z" opacity=".75"/>
  </g>
  <g id="east-focus-topleft" fill="currentColor" class="ColorScheme-Text" transform="translate(128 188)">
    <rect width="20" height="20" fill="none"/>
    <path d="M20 2A16 16 0 0 0 4 18v2h16z" opacity=".16"/>
  </g>
  <g id="east-focus-top" fill="currentColor" class="ColorScheme-Text" transform="translate(152 188)">
    <rect width="8" height="20" fill="none"/>
    <rect width="8" height="18" y="2" opacity=".16"/>
  </g>
  <g id="east-focus-topright" fill="currentColor" class="ColorScheme-Text" transform="translate(164 188)">
    <rect width="20" height="20" fill="none"/>
    <path d="M0 2v18h16v-2A16 16 0 0 0 0 2z" opacity=".16"/>
    <path d="M15 19v1h2v-1a1 1 0 0 0-2 0z" opacity=".75"/>
  </g>
  <g id="east-focus-left" fill="currentColor" class="ColorScheme-Text" transform="translate(128 212)">
    <rect width="20" height="8" fill="none"/>
    <rect width="16" height="8" x="4" opacity=".16"/>
  </g>
  <g id="east-focus-center" fill="currentColor" class="ColorScheme-Text" transform="translate(152 212)">
    <rect width="8" height="8" fill="none"/>
    <rect width="8" height="8" opacity=".16"/>
  </g>
  <g id="east-focus-right" fill="currentColor" class="ColorScheme-Text" transform="translate(164 212)">
    <rect width="20" height="8" fill="none"/>
    <rect width="16" height="8" opacity=".16"/>
    <rect width="2" height="8" x="15" opacity=".75"/>
  </g>
  <g id="east-focus-bottomleft" fill="currentColor" class="ColorScheme-Text" transform="translate(128 224)">
    <rect width="20" height="20" fill="none"/>
    <path d="M4 0v2a16 16 0 0 0 16 16V0z" opacity=".16"/>
  </g>
  <g id="east-focus-bottom" fill="currentColor" class="ColorScheme-Text" transform="translate(152 224)">
    <rect width="8" height="20" fill="none"/>
    <rect width="8" height="18" opacity=".16"/>
  </g>
  <g id="east-focus-bottomright" fill="currentColor" class="ColorScheme-Text" transform="translate(164 224)">
    <rect width="20" height="20" fill="none"/>
    <path d="M0 0v18A16 16 0 0 0 16 2V0z" opacity=".16"/>
    <path d="M15 0v1a1 1 0 0 0 2 0V0z" opacity=".75"/>
  </g>
  <g id="east-minimized-topleft" transform="translate(188 188)">
    <rect width="20" height="20" fill="none"/>
  </g>
  <g id="east-minimized-top" transform="translate(212 188)">
    <rect width="8" height="20" fill="none"/>
  </g>
  <g id="east-minimized-topright" fill="currentColor" class="ColorScheme-Text" transform="translate(224 188)">
    <rect width="20" height="20" fill="none"/>
    <path d="M15 19v1h2v-1a1 1 0 0 0-2 0z" opacity=".2"/>
  </g>
  <g id="east-minimized-left" transform="translate(188 212)">
    <rect width="20" height="8" fill="none"/>
  </g>
  <g id="east-minimized-center" transform="translate(212 212)">
    <rect width="8" height="8" fill="none"/>
  </g>
  <g id="east-minimized-right" fill="currentColor" class="ColorScheme-Text" transform="translate(224 212)">
    <rect width="20" height="8" fill="none"/>
    <rect width="2" height="8" x="15" opacity=".2"/>
  </g>
  <g id="east-minimized-bottomleft" transform="translate(188 224)">
    <rect width="20" height="20" fill="none"/>
  </g>
  <g id="east-minimized-bottom" transform="translate(212 224)">
    <rect width="8" height="20" fill="none"/>
  </g>
  <g id="east-minimized-bottomright" fill="currentColor" class="ColorScheme-Text" transform="translate(224 224)">
    <rect width="20" height="20" fill="none"/>
    <path d="M15 0v1a1 1 0 0 0 2 0V0z" opacity=".2"/>
  </g>
  <g id="east-attention-topleft" fill="#fdd663" transform="translate(248 188)">
    <rect width="20" height="20" fill="none"/>
    <path d="M20 2A16 16 0 0 0 4 18v2h16z" opacity=".16"/>
  </g>
  <g id="east-attention-top" fill="#fdd663" transform="translate(272 188)">
    <rect width="8" height="20" fill="none"/>
    <rect width="8" height="18" y="2" opacity=".16"/>
  </g>
  <g id="east-attention-topright" fill="#fdd663" transform="translate(284 188)">
    <rect width="20" height="20" fill="none"/>
    <path d="M0 2v18h16v-2A16 16 0 0 0 0 2z" opacity=".16"/>
    <path d="M15 19v1h2v-1a1 1 0 0 0-2 0z"/>
  </g>
  <g id="east-attention-left" fill="#fdd663" transform="translate(248 212)">
    <rect width="20" height="8" fill="none"/>
    <rect width="16" height="8" x="4" opacity=".16"/>
  </g>
  <g id="east-attention-center" fill="#fdd663" transform="translate(272 212)">
    <rect width="8" height="8" fill="none"/>
    <rect width="8" height="8" opacity=".16"/>
  </g>
  <g id="east-attention-right" fill="#fdd663" transform="translate(284 212)">
    <rect width="20" height="8" fill="none"/>
    <rect width="16" height="8" opacity=".16"/>
    <rect width="2" height="8" x="15"/>
  </g>
  <g id="east-attention-bottomleft" fill="#fdd663" transform="translate(248 224)">
    <rect width="20" height="20" fill="none"/>
    <path d="M4 0v2a16 16 0 0 0 16 16V0z" opacity=".16"/>
  </g>
  <g id="east-attention-bottom" fill="#fdd663" transform="translate(272 224)">
    <rect width="8" height="20" fill="none"/>
    <rect width="8" height="18" opacity=".16"/>
  </g>
  <g id="east-attention-bottomright" fill="#fdd663" transform="translate(284 224)">
    <rect width="20" height="20" fill="none"/>
    <path d="M0 0v18A16 16 0 0 0 16 2V0z" opacity=".16"/>
    <path d="M15 0v1a1 1 0 0 0 2 0V0z"/>
  </g>
  <g id="east-progress-topleft" fill="currentColor" class="ColorScheme-Highlight" transform="translate(308 188)">
    <rect width="20" height="20" fill="none"/>
    <path d="M20 2A16 16 0 0 0 4 18v2h16z" opacity=".38"/>
  </g>
  <g id="east-progress-top" fill="currentColor" class="ColorScheme-Highlight" transform="translate(332 188)">
    <rect width="8" height="20" fill="none"/>
    <rect width="8" height="18" y="2" opacity=".38"/>
  </g>
  <g id="east-progress-topright" fill="currentColor" class="ColorScheme-Highlight" transform="translate(344 188)">
    <rect width="20" height="20" fill="none"/>
    <path d="M0 2v18h16v-2A16 16 0 0 0 0 2z" opacity=".38"/>
  </g>
  <g id="east-progress-left" fill="currentColor" class="ColorScheme-Highlight" transform="translate(308 212)">
    <rect width="20" height="8" fill="none"/>
    <rect width="16" height="8" x="4" opacity=".38"/>
  </g>
  <g id="east-progress-center" fill="currentColor" class="ColorScheme-Highlight" transform="translate(332 212)">
    <rect width="8" height="8" fill="none"/>
    <rect width="8" height="8" opacity=".38"/>
  </g>
  <g id="east-progress-right" fill="currentColor" class="ColorScheme-Highlight" transform="translate(344 212)">
    <rect width="20" height="8" fill="none"/>
    <rect width="16" height="8" opacity=".38"/>
  </g>
  <g id="east-progress-bottomleft" fill="currentColor" class="ColorScheme-Highlight" transform="translate(308 224)">
    <rect width="20" height="20" fill="none"/>
    <path d="M4 0v2a16 16 0 0 0 16 16V0z" opacity=".38"/>
  </g>
  <g id="east-progress-bottom" fill="currentColor" class="ColorScheme-Highlight" transform="translate(332 224)">
    <rect width="8" height="20" fill="none"/>
    <rect width="8" height="18" opacity=".38"/>
  </g>
  <g id="east-progress-bottomright" fill="currentColor" class="ColorScheme-Highlight" transform="translate(344 224)">
    <rect width="20" height="20" fill="none"/>
    <path d="M0 0v18A16 16 0 0 0 16 2V0z" opacity=".38"/>
  </g>
  <g id="group-expander-bottom" fill="currentColor" class="ColorScheme-Text" transform="translate(372 32)">
    <rect width="8" height="8" fill="none"/>
    <circle cx="4" cy="4" r="2"/>
  </g>
  <g id="group-expander-top" fill="currentColor" class="ColorScheme-Text" transform="translate(372 92)">
    <rect width="8" height="8" fill="none"/>
    <circle cx="4" cy="4" r="2"/>
  </g>
  <g id="group-expander-left" fill="currentColor" class="ColorScheme-Text" transform="translate(372 152)">
    <rect width="8" height="8" fill="none"/>
    <circle cx="4" cy="4" r="2"/>
  </g>
  <g id="group-expander-right" fill="currentColor" class="ColorScheme-Text" transform="translate(372 212)">
    <rect width="8" height="8" fill="none"/>
    <circle cx="4" cy="4" r="2"/>
  </g>
</svg>
