<?xml version="1.0" encoding="UTF-8" standalone="no"?>
<svg
   width="54"
   height="32"
   id="svg3613"
   version="1.1"
   sodipodi:docname="applications.svgz"
   inkscape:version="1.1.1 (3bf5ae0d25, 2021-09-20, custom)"
   xmlns:inkscape="http://www.inkscape.org/namespaces/inkscape"
   xmlns:sodipodi="http://sodipodi.sourceforge.net/DTD/sodipodi-0.dtd"
   xmlns="http://www.w3.org/2000/svg"
   xmlns:svg="http://www.w3.org/2000/svg"
   xmlns:rdf="http://www.w3.org/1999/02/22-rdf-syntax-ns#"
   xmlns:cc="http://creativecommons.org/ns#"
   xmlns:dc="http://purl.org/dc/elements/1.1/">
  <sodipodi:namedview
     id="namedview12"
     pagecolor="#ffffff"
     bordercolor="#111111"
     borderopacity="1"
     inkscape:pageshadow="0"
     inkscape:pageopacity="0"
     inkscape:pagecheckerboard="1"
     showgrid="true"
     inkscape:zoom="13.788582"
     inkscape:cx="19.472633"
     inkscape:cy="16.53542"
     inkscape:window-width="1920"
     inkscape:window-height="1011"
     inkscape:window-x="0"
     inkscape:window-y="0"
     inkscape:window-maximized="1"
     inkscape:current-layer="22-22-applications-other">
    <inkscape:grid
       type="xygrid"
       id="grid112" />
  </sodipodi:namedview>
  <metadata
     id="metadata13">
    <rdf:RDF>
      <cc:Work
         rdf:about="">
        <dc:format>image/svg+xml</dc:format>
        <dc:type
           rdf:resource="http://purl.org/dc/dcmitype/StillImage" />
        <dc:title />
      </cc:Work>
    </rdf:RDF>
  </metadata>
  <defs
     id="defs3615">
    <style
       type="text/css"
       id="current-color-scheme">
      .ColorScheme-Text {
        color:#31363b;
      }
      .ColorScheme-Background{
        color:#E9E8E8;
      }
      .ColorScheme-ViewText {
        color:#31363b;
      }
      .ColorScheme-ViewBackground{
        color:#ffffff;
      }
      .ColorScheme-ViewHover {
        color:#000000;
      }
      .ColorScheme-ViewFocus{
        color:#5a5a5a;
      }
      .ColorScheme-ButtonText {
        color:#31363b;
      }
      .ColorScheme-ButtonBackground{
        color:#E9E8E8;
      }
      .ColorScheme-ButtonHover {
        color:#1489ff;
      }
      .ColorScheme-ButtonFocus{
        color:#2B74C7;
      }
</style>
  </defs>
  <g
     id="22-22-applications-other"
     class="ColorScheme-Text"
     fill="currentColor">
    <rect
       width="22"
       height="22"
       style="fill:none"
       id="rect295" />
    <path
       d="M 3,7 H 7 V 3 H 3 Z m 6,12 h 4 V 15 H 9 Z M 3,19 H 7 V 15 H 3 Z M 3,13 H 7 V 9 H 3 Z m 6,0 h 4 V 9 H 9 Z M 15,3 v 4 h 4 V 3 Z M 9,7 h 4 V 3 H 9 Z m 6,6 h 4 V 9 h -4 z m 0,6 h 4 v -4 h -4 z"
       id="path116" />
  </g>
  <g
     transform="matrix(1.0000028,0,0,1.0000009,-398.71551,-516.79118)"
     id="applications-other">
    <rect
       style="opacity:0.01000001;fill:#000000;fill-opacity:0.00392157;stroke:none"
       id="rect2994"
       width="32"
       height="32"
       x="-7.1557004e-08"
       y="-7.9999948"
       transform="matrix(0.99999706,0,0,0.99999899,420.71433,524.79072)" />
    <path
       style="fill:currentColor;fill-opacity:1;stroke:none"
       d="m 424.71433,520.79075 0,9.99995 9.99995,10e-6 0,-9.99994 z m 13.99994,2e-5 0,9.99994 9.99998,-10e-6 0,-9.99995 z m -12.99995,0.99994 7.99998,0 0,7.99999 -7.99998,0 z m 13.99996,0 7.99998,0 0,7.99999 -7.99998,0 z m -14.99995,13 0,9.99998 9.99995,2e-5 0,-9.99998 z m 13.99994,2e-5 0,9.99998 1.99999,-2e-5 5.99999,0 2,0 0,-1.99998 0,-5.99999 0,-2.00001 -2,0 -5.99999,0 z m -12.99995,0.99997 7.99998,0 0,7.99999 -7.99998,0 z m 13.99996,0 7.99998,0 0,7.99999 -7.99998,0 z"
       id="path2996"
       class="ColorScheme-Text" />
  </g>
</svg>
