<svg xmlns="http://www.w3.org/2000/svg" width="70" height="32">
  <style id="current-color-scheme" type="text/css">
    .ColorScheme-Text{color:#202124}
  </style>
  <g id="configure" fill="currentColor" class="ColorScheme-Text">
    <rect width="32" height="32" fill="none"/>
    <path d="M23.1 16.9c.04-.3.06-.61.06-.94 0-.32-.02-.64-.07-.94l2.03-1.58a.49.49 0 0 0 .12-.61l-1.92-3.32a.488.488 0 0 0-.59-.22l-2.39.96c-.5-.38-1.03-.7-1.62-.94l-.36-2.54a.484.484 0 0 0-.48-.41h-3.84c-.24 0-.43.17-.47.41l-.36 2.54c-.59.24-1.13.57-1.62.94L9.2 9.29c-.22-.08-.47 0-.59.22L6.7 12.83c-.12.21-.08.47.12.61l2.03 1.58c-.05.3-.09.63-.09.94s.02.64.07.94L6.8 18.48a.49.49 0 0 0-.12.61l1.92 3.32c.12.22.37.29.59.22l2.39-.96c.5.38 1.03.7 1.62.94l.36 2.54c.05.24.24.41.48.41h3.84c.24 0 .44-.17.47-.41l.36-2.54c.59-.24 1.13-.56 1.62-.94l2.39.96c.22.08.47 0 .59-.22l1.92-3.32c.12-.22.07-.47-.12-.61zm-7.14 2.66c-1.98 0-3.6-1.62-3.6-3.6s1.62-3.6 3.6-3.6 3.6 1.62 3.6 3.6-1.62 3.6-3.6 3.6z"/>
  </g>
  <g id="22-22-configure" fill="currentColor" class="ColorScheme-Text" transform="translate(32)">
    <rect width="22" height="22" fill="none"/>
    <path d="M17 11.8c.033-.25.05-.508.05-.783 0-.267-.017-.533-.058-.783l1.69-1.32a.408.408 0 0 0 .1-.508l-1.6-2.77c-.1-.183-.308-.242-.492-.183l-1.99.8a5.874 5.874 0 0 0-1.35-.783l-.3-2.12a.403.403 0 0 0-.4-.342h-3.2c-.2 0-.358.142-.392.342l-.3 2.12c-.492.2-.942.475-1.35.783l-1.99-.8a.399.399 0 0 0-.492.183l-1.59 2.77c-.1.175-.067.392.1.508l1.69 1.32c-.042.25-.075.525-.075.783s.016.533.058.783l-1.69 1.32a.408.408 0 0 0-.1.508l1.6 2.77c.1.183.308.242.492.183l1.99-.8c.417.317.858.583 1.35.783l.3 2.12c.042.2.2.342.4.342h3.2a.39.39 0 0 0 .392-.342l.3-2.12c.492-.2.942-.467 1.35-.783l1.99.8c.183.067.392 0 .492-.183l1.6-2.77c.1-.183.058-.392-.1-.508zm-5.95 2.22c-1.65 0-3-1.35-3-3s1.35-3 3-3 3 1.35 3 3-1.35 3-3 3z"/>
  </g>
  <g id="16-16-configure" fill="currentColor" class="ColorScheme-Text" transform="translate(54)">
    <rect width="16" height="16" fill="none"/>
    <path d="M14 8.78c.033-.25.05-.508.05-.783 0-.267-.017-.533-.058-.783l1.69-1.32a.408.408 0 0 0 .1-.508l-1.6-2.77c-.1-.183-.308-.242-.492-.183l-1.99.8a5.874 5.874 0 0 0-1.35-.783l-.3-2.12a.403.403 0 0 0-.4-.342h-3.2c-.2 0-.358.142-.392.342l-.3 2.12c-.492.2-.942.475-1.35.783l-1.99-.8a.399.399 0 0 0-.492.183l-1.59 2.77c-.1.175-.067.392.1.508l1.69 1.32c-.042.25-.075.525-.075.783s.016.533.058.783L.419 10.1a.408.408 0 0 0-.1.508l1.6 2.77c.1.183.308.242.492.183l1.99-.8c.417.317.858.583 1.35.783l.3 2.12c.042.2.2.342.4.342h3.2a.39.39 0 0 0 .392-.342l.3-2.12c.492-.2.942-.467 1.35-.783l1.99.8c.183.067.392 0 .492-.183l1.6-2.77c.1-.183.058-.392-.1-.508zM8.05 11c-1.65 0-3-1.35-3-3s1.35-3 3-3 3 1.35 3 3-1.35 3-3 3z"/>
  </g>
</svg>
