<svg xmlns="http://www.w3.org/2000/svg" width="80" height="32">
  <style id="current-color-scheme" type="text/css">
    .ColorScheme-Text{color:#202124}
  </style>
  <g id="device-notifier" fill="currentColor" class="ColorScheme-Text">
    <rect width="32" height="32" fill="none"/>
    <path d="M16 4a4 4 0 0 0-4 4 4 4 0 0 0 3 3.87V16l-5 5H4v7h7v-5.08l5-5.17 5 5.17V28h7v-7h-6l-5-5v-4.13A4 4 0 0 0 20 8a4 4 0 0 0-4-4z"/>
  </g>
  <g id="22-22-device-notifier" fill="currentColor" class="ColorScheme-Text" transform="translate(32)">
    <rect width="22" height="22" fill="none"/>
    <path d="m15 14-3-3V8.82C13.16 8.4 14 7.3 14 6c0-1.66-1.34-3-3-3S8 4.34 8 6c0 1.3.84 2.4 2 2.82V11l-3 3H3v5h5v-3.05l3-3.2 3 3.2V19h5v-5z"/>
  </g>
  <g id="16-16-device-notifier" fill="currentColor" class="ColorScheme-Text" transform="translate(54)">
    <rect width="16" height="16" fill="none"/>
    <path d="M12 11 9 8V5.82C10.16 5.4 11 4.3 11 3c0-1.66-1.34-3-3-3S5 1.34 5 3c0 1.3.84 2.4 2 2.82V8l-3 3H0v5h5v-3.05l3-3.2 3 3.2V16h5v-5z"/>
  </g>
</svg>
