<svg xmlns="http://www.w3.org/2000/svg" width="80" height="32">
  <style id="current-color-scheme" type="text/css">
    .ColorScheme-Text{color:#202124}
  </style>
  <g id="edit-delete" fill="currentColor" class="ColorScheme-Text">
    <rect width="32" height="32" fill="none"/>
    <path d="M24 10v18H8V10h1v17h14V10zm3-2H5v1h22zm-7-4v3h-1V5h-6v2h-1V4z"/>
  </g>
  <g id="22-22-edit-delete" fill="currentColor" class="ColorScheme-Text" transform="translate(32)">
    <rect width="22" height="22" fill="none"/>
    <path d="M6 17c0 1.1.9 2 2 2h6c1.1 0 1.89-.905 2-2V7H6ZM17 4h-3l-1-1H9L8 4H5v2h12z"/>
  </g>
  <g id="16-16-edit-delete" fill="currentColor" class="ColorScheme-Text" transform="translate(54)">
    <rect width="16" height="16" fill="none"/>
    <path d="M5 2v2h1V3h4v1h1V2H6zM2 5v1h2v8h8V6h2V5zm3 1h6v7H5z"/>
  </g>
</svg>
