<svg xmlns="http://www.w3.org/2000/svg" width="54" height="32">
  <style id="current-color-scheme" type="text/css">
    .ColorScheme-Text{color:#202124}
  </style>
  <g id="klipper" fill="currentColor" class="ColorScheme-Text">
    <rect width="32" height="32" fill="none"/>
    <path d="M24 4h-5.18C18.4 2.84 17.3 2 16 2s-2.4.84-2.82 2H8c-1.1 0-2 .9-2 2v20c0 1.1.9 2 2 2h16c1.1 0 2-.9 2-2V6c0-1.1-.9-2-2-2zm-8 0c.55 0 1 .45 1 1s-.45 1-1 1-1-.45-1-1 .45-1 1-1zm8 22H8V6h3v3h10V6h3z"/>
  </g>
  <g id="22-22-klipper" fill="currentColor" class="ColorScheme-Text" transform="translate(32)">
    <rect width="22" height="22" fill="none"/>
    <path d="M16 3h-2.18C13.4 1.84 12.3 1 11 1s-2.4.84-2.82 2H6c-1.1 0-2 .9-2 2v12c0 1.1.9 2 2 2h10c1.1 0 2-.9 2-2V5c0-1.1-.9-2-2-2zm-5 0c.55 0 1 .45 1 1s-.45 1-1 1-1-.45-1-1 .45-1 1-1zm5 14H6V5h2v3h6V5h2z"/>
  </g>
</svg>
