<svg xmlns="http://www.w3.org/2000/svg" width="132" height="44">
  <style id="current-color-scheme" type="text/css">
    .ColorScheme-Text{color:#202124}
    .ColorScheme-Highlight{color:#1a73e8}
  </style>
  <g id="notification-inactive" fill="currentColor" class="ColorScheme-Text">
    <rect width="22" height="22" fill="none"/>
    <path d="M11 2.5A1.5 1.5 0 0 0 9.5 4v.734A4.998 4.998 0 0 0 6 9.504v4.5l-2 2v1h14v-1l-2-2v-4.5c0-2.18-1.42-4.11-3.5-4.77v-.732a1.5 1.5 0 0 0-1.5-1.5zm0 4c1.66 0 3 1.34 3 3v5.33l.172.172h-6.34l.172-.172V9.5c0-1.66 1.34-3 3-3zM9 18c0 1.1.895 2 2 2 1.1 0 2-.895 2-2z"/>
  </g>
  <g id="notification-active" fill="currentColor" class="ColorScheme-Text" transform="translate(22)">
    <rect width="22" height="22" fill="none"/>
    <path d="M11 2.5A1.5 1.5 0 0 0 9.5 4v.734A5 5 0 0 0 6 9.504v4.5l-2 2v1h14v-1l-2-2v-4.5a5 5 0 0 0-3.5-4.77v-.732a1.5 1.5 0 0 0-1.5-1.5zm5.84.156-1.42 1.42A7 7 0 0 1 18 9.496h2a9 9 0 0 0-3.16-6.84zm-11.7.014A9 9 0 0 0 1.97 9.5h2a7 7 0 0 1 2.58-5.42zm3.83 15.3a2 2 0 0 0 2 2 2 2 0 0 0 2-2z"/>
  </g>
  <g id="notification-disabled" fill="currentColor" class="ColorScheme-Text" transform="translate(44)">
    <rect width="22" height="22" fill="none"/>
    <path d="M11 2.5A1.5 1.5 0 0 0 9.5 4v.734a5.005 5.005 0 0 0-.855.375l7.36 7.36v-2.96c0-2.18-1.42-4.11-3.5-4.77v-.732a1.5 1.5 0 0 0-1.5-1.5zM4.41 3 3 4.41l3.32 3.32a4.98 4.98 0 0 0-.322 1.76v4.5l-2 2v1h11.6l2 2 1.41-1.41-14.6-14.6zM9 18c0 1.1.895 2 2 2 1.1 0 2-.895 2-2z"/>
  </g>
  <g id="notification-empty" fill="currentColor" class="ColorScheme-Text" transform="translate(66)">
    <rect width="22" height="22" fill="none"/>
    <path d="M11 3a8 8 0 0 0-8 8 8 8 0 0 0 8 8 8 8 0 0 0 8-8 8 8 0 0 0-8-8zm0 2a6 6 0 0 1 6 6 6 6 0 0 1-6 6 6 6 0 0 1-6-6 6 6 0 0 1 6-6z"/>
  </g>
  <g id="notification-progress-active" fill="currentColor" class="ColorScheme-Highlight" transform="translate(88)">
    <rect width="22" height="22" fill="none"/>
    <circle cx="11" cy="11" r="8"/>
  </g>
  <g id="notification-progress-inactive" fill="currentColor" class="ColorScheme-Text" transform="translate(110)">
    <rect width="22" height="22" fill="none"/>
    <circle cx="11" cy="11" r="8" opacity=".24"/>
  </g>
  <g id="expander-top" fill="currentColor" class="ColorScheme-Text" transform="translate(6 28)">
    <path d="m0 0 2 2 2-2z"/>
  </g>
  <g id="expander-bottom" fill="currentColor" class="ColorScheme-Text" transform="translate(6 36)">
    <path d="m0 0 2-2 2 2z"/>
  </g>
  <g id="expander-left" fill="currentColor" class="ColorScheme-Text" transform="translate(4 30)">
    <path d="m0 0 2 2-2 2z"/>
  </g>
  <g id="expander-right" fill="currentColor" class="ColorScheme-Text" transform="translate(12 30)">
    <path d="m0 0-2 2 2 2z"/>
  </g>
</svg>
