<svg xmlns="http://www.w3.org/2000/svg" width="32" height="80">
  <style id="current-color-scheme" type="text/css">
    .ColorScheme-Text{color:#202124}
  </style>
  <g id="start-here-kde" fill="currentColor" class="ColorScheme-Text">
    <rect width="32" height="32" fill="none"/>
    <path d="M12 7a1 1 0 1 0 0 2 1 1 0 0 0 0-2zm8 2-2 2 3 3-3 3 2 2 5-5zM8.5 14a1.5 1.5 0 1 0 .001 3.001A1.5 1.5 0 0 0 8.5 14zm5.5 7a2 2 0 1 0-.001 4.001A2 2 0 0 0 14 21z"/>
  </g>
  <g id="22-22-start-here-kde" fill="currentColor" class="ColorScheme-Text" transform="translate(0 32)">
    <rect width="22" height="22" fill="none"/>
    <path d="M7 3a1 1 0 0 0-1 1 1 1 0 0 0 1 1 1 1 0 0 0 1-1 1 1 0 0 0-1-1zm7 0-2 2 3 3-3 3 2 2 5-5zM4.5 9A1.5 1.5 0 0 0 3 10.5 1.5 1.5 0 0 0 4.5 12 1.5 1.5 0 0 0 6 10.5 1.5 1.5 0 0 0 4.5 9zM9 15a2 2 0 0 0-2 2 2 2 0 0 0 2 2 2 2 0 0 0 2-2 2 2 0 0 0-2-2z"/>
  </g>
  <g id="16-16-start-here-kde" fill="currentColor" class="ColorScheme-Text" transform="translate(0 54)">
    <rect width="16" height="16" fill="none"/>
    <path d="M5 2a1 1 0 0 0-1 1 1 1 0 0 0 1 1 1 1 0 0 0 1-1 1 1 0 0 0-1-1zm5 0L8.5 3.5 11 6 8.5 8.5 10 10l4-4zM3 6.5a1 1 0 0 0-1 1 1 1 0 0 0 1 1 1 1 0 0 0 1-1 1 1 0 0 0-1-1zM6.5 11A1.5 1.5 0 0 0 5 12.5 1.5 1.5 0 0 0 6.5 14 1.5 1.5 0 0 0 8 12.5 1.5 1.5 0 0 0 6.5 11z"/>
  </g>
</svg>
