<svg xmlns="http://www.w3.org/2000/svg" width="218" height="182">
  <style id="current-color-scheme" type="text/css">
    .ColorScheme-Text{color:#202124}
  </style>
  <g id="user-desktop" fill="currentColor" class="ColorScheme-Text">
    <rect width="64" height="64" fill="none"/>
    <path d="M8 8v48h48V8zm2 2h44v44H10zm3 39v2h38v-2z"/>
  </g>
  <g id="48-48-user-desktop" fill="currentColor" class="ColorScheme-Text" transform="translate(0 64)">
    <rect width="48" height="48" fill="none"/>
    <path d="M6 6v36h36V6zm2 2h32v32H8zm2 28v2h28v-2z"/>
  </g>
  <g id="32-32-user-desktop" fill="currentColor" class="ColorScheme-Text" transform="translate(0 112)">
    <rect width="32" height="32" fill="none"/>
    <path d="M10 10h5V8h-5c-1.1 0-2 .9-2 2v5h2zm12-2h-5v2h5v5h2v-5c0-1.1-.9-2-2-2zm0 14h-5v2h5c1.1 0 2-.9 2-2v-5h-2zm-12-5H8v5c0 1.1.9 2 2 2h5v-2h-5z"/>
  </g>
  <g id="22-22-user-desktop" fill="currentColor" class="ColorScheme-Text" transform="translate(0 144)">
    <rect width="22" height="22" fill="none"/>
    <path d="M5 5h5V3H5c-1.1 0-2 .9-2 2v5h2zm12-2h-5v2h5v5h2V5c0-1.1-.9-2-2-2zm0 14h-5v2h5c1.1 0 2-.9 2-2v-5h-2zM5 12H3v5c0 1.1.9 2 2 2h5v-2H5z"/>
  </g>
  <g id="16-16-user-desktop" fill="currentColor" class="ColorScheme-Text" transform="translate(0 166)">
    <rect width="16" height="16" fill="none"/>
    <path d="M2 2h5V0H2C.9 0 0 .9 0 2v5h2zm12-2H9v2h5v5h2V2c0-1.1-.9-2-2-2zm0 14H9v2h5c1.1 0 2-.9 2-2V9h-2zM2 9H0v5c0 1.1.9 2 2 2h5v-2H2z"/>
  </g>
  <g id="user-identity" fill="currentColor" class="ColorScheme-Text" transform="translate(64 144)">
    <rect width="22" height="22" fill="none"/>
    <path d="M11 3a4 4 0 0 0-4 4 4 4 0 0 0 4 4 4 4 0 0 0 4-4 4 4 0 0 0-4-4zm0 1a3 3 0 0 1 3 3 3 3 0 0 1-3 3 3 3 0 0 1-3-3 3 3 0 0 1 3-3zm0 8a8 8 0 0 0-7.93 7h1.01A7 7 0 0 1 11 13a7 7 0 0 1 6.92 6h1.01A8 8 0 0 0 11 12z"/>
  </g>
  <g id="user-busy" fill="#f47750" transform="translate(86 144)">
    <rect width="22" height="22" fill="none"/>
    <path d="M11 3a4 4 0 0 0-4 4 4 4 0 0 0 4 4 4 4 0 0 0 4-4 4 4 0 0 0-4-4zm0 1a3 3 0 0 1 3 3 3 3 0 0 1-3 3 3 3 0 0 1-3-3 3 3 0 0 1 3-3zm0 8a8 8 0 0 0-7.93 7h1.01A7 7 0 0 1 11 13a7 7 0 0 1 1 .08v-1.01a8 8 0 0 0-1-.07zm4.5 0a3.5 3.5 0 0 0-3.5 3.5 3.5 3.5 0 0 0 3.5 3.5 3.5 3.5 0 0 0 3.5-3.5 3.5 3.5 0 0 0-3.5-3.5zm-.5 1h1v2h1v1h-2z"/>
  </g>
  <g id="user-away" fill="#fdbc4b" transform="translate(108 144)">
    <rect width="22" height="22" fill="none"/>
    <path d="M11 3a4 4 0 0 0-4 4 4 4 0 0 0 4 4 4 4 0 0 0 4-4 4 4 0 0 0-4-4zm0 1a3 3 0 0 1 3 3 3 3 0 0 1-3 3 3 3 0 0 1-3-3 3 3 0 0 1 3-3zm8 7-8 4 2 1 1 3 1-2 2 1zm-8 1a8 8 0 0 0-7.93 7h1.01A7 7 0 0 1 11 13a7 7 0 0 1 1 .08v-1.01a8 8 0 0 0-1-.07z"/>
  </g>
  <g id="user-offline" fill="#bdc3c7" transform="translate(130 144)">
    <rect width="22" height="22" fill="none"/>
    <path d="M11 3a4 4 0 0 0-4 4 4 4 0 0 0 4 4 4 4 0 0 0 4-4 4 4 0 0 0-4-4zm0 1a3 3 0 0 1 3 3 3 3 0 0 1-3 3 3 3 0 0 1-3-3 3 3 0 0 1 3-3zm0 8a8 8 0 0 0-7.93 7h1.01A7 7 0 0 1 11 13a7 7 0 0 1 1 .08v-1.01a8 8 0 0 0-1-.07zm4.5 0a3.5 3.5 0 0 0-3.5 3.5 3.5 3.5 0 0 0 3.5 3.5 3.5 3.5 0 0 0 3.5-3.5 3.5 3.5 0 0 0-3.5-3.5zm0 1a2.5 2.5 0 0 1 2.5 2.5 2.5 2.5 0 0 1-2.5 2.5 2.5 2.5 0 0 1-2.5-2.5 2.5 2.5 0 0 1 2.5-2.5zM14 15v1h3v-1z"/>
  </g>
  <g id="user-online" fill="#43be80" transform="translate(152 144)">
    <rect width="22" height="22" fill="none"/>
    <path d="M11 3a4 4 0 0 0-4 4 4 4 0 0 0 4 4 4 4 0 0 0 4-4 4 4 0 0 0-4-4zm0 1a3 3 0 0 1 3 3 3 3 0 0 1-3 3 3 3 0 0 1-3-3 3 3 0 0 1 3-3zm0 8a8 8 0 0 0-7.93 7h1.01A7 7 0 0 1 11 13a7 7 0 0 1 1 .08v-1.01a8 8 0 0 0-1-.07zm4.5 0a3.5 3.5 0 0 0-3.5 3.5 3.5 3.5 0 0 0 3.5 3.5 3.5 3.5 0 0 0 3.5-3.5 3.5 3.5 0 0 0-3.5-3.5zm1.5 1.5 1 1-3 3-2-2 1-1 1 1z"/>
  </g>
  <g id="user-invisible" fill="currentColor" class="ColorScheme-Text" transform="translate(174 144)">
    <rect width="22" height="22" fill="none"/>
    <path d="M11 3a4 4 0 0 0-4 4 4 4 0 0 0 4 4 4 4 0 0 0 4-4 4 4 0 0 0-4-4zm0 1a3 3 0 0 1 3 3 3 3 0 0 1-3 3 3 3 0 0 1-3-3 3 3 0 0 1 3-3zm0 8a8 8 0 0 0-7.93 7h1.01A7 7 0 0 1 11 13a7 7 0 0 1 1 .08v-1.01a8 8 0 0 0-1-.07zm4.5 0a3.5 3.5 0 0 0-3.5 3.5 3.5 3.5 0 0 0 3.5 3.5 3.5 3.5 0 0 0 3.5-3.5 3.5 3.5 0 0 0-3.5-3.5zm1.3 1.5.707.707-3.29 3.29-.707-.707z"/>
  </g>
  <g id="user-away-extended" fill="#9b59b6" transform="translate(196 144)">
    <rect width="22" height="22" fill="none"/>
    <path d="M11 3a4 4 0 0 0-4 4 4 4 0 0 0 4 4 4 4 0 0 0 4-4 4 4 0 0 0-4-4zm0 1a3 3 0 0 1 3 3 3 3 0 0 1-3 3 3 3 0 0 1-3-3 3 3 0 0 1 3-3zm0 8a8 8 0 0 0-7.93 7h1.01A7 7 0 0 1 11 13a7 7 0 0 1 1 .08v-1.01a8 8 0 0 0-1-.07zm4.5 0a3.5 3.5 0 0 0-3.5 3.5 3.5 3.5 0 0 0 3.5 3.5 3.5 3.5 0 0 0 3.5-3.5 3.5 3.5 0 0 0-3.5-3.5zm-2 3a.5.5 0 0 1 .5.5.5.5 0 0 1-.5.5.5.5 0 0 1-.5-.5.5.5 0 0 1 .5-.5zm2 0a.5.5 0 0 1 .5.5.5.5 0 0 1-.5.5.5.5 0 0 1-.5-.5.5.5 0 0 1 .5-.5zm2 0a.5.5 0 0 1 .5.5.5.5 0 0 1-.5.5.5.5 0 0 1-.5-.5.5.5 0 0 1 .5-.5z"/>
  </g>
</svg>
