<svg xmlns="http://www.w3.org/2000/svg" width="66" height="78">
  <style id="current-color-scheme" type="text/css">
    .ColorScheme-Text{color:#202124}
    .ColorScheme-Highlight{color:#1a73e8}
  </style>
  <g id="window-list" fill="currentColor" class="ColorScheme-Text">
    <rect width="32" height="32" fill="none"/>
    <path d="M4 4v10h10V4H4zm14 0v10h10V4H18zM6 6h6v6H6V6zm14 0h6v6h-6V6zM4 18v10h10V18H4zm14 0v10h10V18H18zM6 20h6v6H6v-6zm14 0h6v6h-6v-6z"/>
  </g>
  <g id="window-pin" fill="currentColor" class="ColorScheme-Text" transform="translate(0 32)">
    <rect width="22" height="22" fill="none"/>
    <path d="M7 3a1 1 0 0 0-1 1 1 1 0 0 0 1 1h1v3a3 3 0 0 1-3 3v2h5v5l1 1 1-1v-5h5v-2a3 3 0 0 1-3-3V5h1a1 1 0 0 0 1-1 1 1 0 0 0-1-1z"/>
  </g>
  <g id="window-unpin" fill="currentColor" class="ColorScheme-Highlight" transform="translate(22 32)">
    <rect width="22" height="22" fill="none"/>
    <path d="M7 3a1 1 0 0 0-1 1 1 1 0 0 0 1 1h1v3a3 3 0 0 1-3 3v2h5v5l1 1 1-1v-5h5v-2a3 3 0 0 1-3-3V5h1a1 1 0 0 0 1-1 1 1 0 0 0-1-1z"/>
  </g>
  <g id="window-close" fill="currentColor" class="ColorScheme-Text" transform="translate(44 32)">
    <rect width="22" height="22" fill="none"/>
    <path d="M17 6.41 15.59 5 11 9.59 6.41 5 5 6.41 9.59 11 5 15.59 6.41 17 11 12.41 15.59 17 17 15.59 12.41 11Z"/>
  </g>
  <g id="16-16-window-pin" fill="currentColor" class="ColorScheme-Text" transform="translate(0 54)">
    <rect width="16" height="16" fill="none"/>
    <path d="M4 0a1 1 0 0 0-1 1 1 1 0 0 0 1 1h1v3a3 3 0 0 1-3 3v2h5v5l1 1 1-1v-5h5V8a3 3 0 0 1-3-3V2h1a1 1 0 0 0 1-1 1 1 0 0 0-1-1z"/>
  </g>
  <g id="16-16-window-unpin" fill="currentColor" class="ColorScheme-Highlight" transform="translate(22 54)">
    <rect width="16" height="16" fill="none"/>
    <path d="M4 0a1 1 0 0 0-1 1 1 1 0 0 0 1 1h1v3a3 3 0 0 1-3 3v2h5v5l1 1 1-1v-5h5V8a3 3 0 0 1-3-3V2h1a1 1 0 0 0 1-1 1 1 0 0 0-1-1z"/>
  </g>
  <g id="16-16-window-close" fill="currentColor" class="ColorScheme-Text" transform="translate(44 54)">
    <rect width="16" height="16" fill="none"/>
    <path d="M14 3.41 12.59 2 8 6.59 3.41 2 2 3.41 6.59 8 2 12.59 3.41 14 8 9.41 12.59 14 14 12.59 9.41 8Z"/>
  </g>
  <g id="8-8-window-pin" fill="currentColor" class="ColorScheme-Text" transform="translate(0 70)">
    <rect width="8" height="8" fill="none"/>
    <path d="M2 0a.5.5 0 0 0-.5.5.5.5 0 0 0 .5.5h.5v1.5A1.5 1.5 0 0 1 1 4v1h2.5v2.5L4 8l.5-.5V5H7V4a1.5 1.5 0 0 1-1.5-1.5V1H6a.5.5 0 0 0 .5-.5A.5.5 0 0 0 6 0z"/>
  </g>
  <g id="8-8-window-unpin" fill="currentColor" class="ColorScheme-Highlight" transform="translate(22 70)">
    <rect width="8" height="8" fill="none"/>
    <path d="M2 0a.5.5 0 0 0-.5.5.5.5 0 0 0 .5.5h.5v1.5A1.5 1.5 0 0 1 1 4v1h2.5v2.5L4 8l.5-.5V5H7V4a1.5 1.5 0 0 1-1.5-1.5V1H6a.5.5 0 0 0 .5-.5A.5.5 0 0 0 6 0z"/>
  </g>
</svg>
